KayPhoDu-Bold.ufo
<glyph name="exclam" format="2">
  <advance width="282"/>
  <unicode hex="0021"/>
  <outline>
    <contour>
      <point x="131" y="1231" type="qcurve" smooth="yes"/>
      <point x="102" y="1231"/>
      <point x="60" y="1216"/>
      <point x="32" y="1188"/>
      <point x="19" y="1149"/>
      <point x="19" y="1125" type="qcurve"/>
      <point x="92" y="237" type="line"/>
      <point x="170" y="237" type="line"/>
      <point x="242" y="1125" type="line"/>
      <point x="242" y="1149"/>
      <point x="229" y="1188"/>
      <point x="201" y="1216"/>
      <point x="159" y="1231"/>
    </contour>
    <contour>
      <point x="210" y="0" type="line"/>
      <point x="210" y="156" type="line"/>
      <point x="53" y="156" type="line"/>
      <point x="53" y="0" type="line"/>
    </contour>
  </outline>
</glyph>
<glyph name="percent" format="2">
	<advance width="949"/>
	<unicode hex="0025"/>
	<note>
		percent
  </note>
	<outline>
		<contour>
			<point x="265" y="0" type="line"/>
			<point x="843" y="1058" type="line"/>
			<point x="673" y="1061" type="line"/>
			<point x="99" y="0" type="line"/>
		</contour>
		<contour>
			<point x="317" y="664" type="line"/>
			<point x="317" y="820" type="line"/>
			<point x="160" y="820" type="line"/>
			<point x="160" y="664" type="line"/>
		</contour>
		<contour>
			<point x="776" y="236" type="line"/>
			<point x="776" y="392" type="line"/>
			<point x="619" y="392" type="line"/>
			<point x="619" y="236" type="line"/>
		</contour>
	</outline>
</glyph>
<glyph name="parenleft" format="2">
  <advance width="621"/>
  <unicode hex="0028"/>
  <outline>
    <contour>
      <point x="41" y="444" type="curve" smooth="yes"/>
      <point x="40" y="313"/>
      <point x="66" y="182"/>
      <point x="119" y="62" type="curve" smooth="yes"/>
      <point x="172" y="-59"/>
      <point x="252" y="-168"/>
      <point x="359" y="-255" type="curve"/>
      <point x="597" y="-255" type="line"/>
      <point x="474" y="-181"/>
      <point x="361" y="-67"/>
      <point x="295" y="56" type="curve" smooth="yes"/>
      <point x="231" y="176"/>
      <point x="197" y="308"/>
      <point x="197" y="444" type="curve" smooth="yes"/>
      <point x="197" y="580"/>
      <point x="231" y="712"/>
      <point x="295" y="832" type="curve" smooth="yes"/>
      <point x="361" y="955"/>
      <point x="474" y="1069"/>
      <point x="597" y="1143" type="curve"/>
      <point x="359" y="1143" type="line"/>
      <point x="252" y="1056"/>
      <point x="172" y="947"/>
      <point x="119" y="827" type="curve" smooth="yes"/>
      <point x="66" y="707"/>
      <point x="40" y="575"/>
    </contour>
  </outline>
</glyph>
<glyph name="parenright" format="2">
	<advance width="675"/>
	<unicode hex="0029"/>
	<note>
		parenright
  </note>
	<outline>
		<contour>
			<point x="592" y="444" type="qcurve" smooth="yes"/>
			<point x="594" y="542"/>
			<point x="555" y="737"/>
			<point x="475" y="917"/>
			<point x="354" y="1078"/>
			<point x="274" y="1143" type="qcurve"/>
			<point x="37" y="1143" type="line"/>
			<point x="84" y="1114"/>
			<point x="171" y="1045"/>
			<point x="248" y="966"/>
			<point x="314" y="879"/>
			<point x="339" y="832" type="qcurve" smooth="yes"/>
			<point x="387" y="742"/>
			<point x="436" y="546"/>
			<point x="436" y="444" type="qcurve" smooth="yes"/>
			<point x="436" y="342"/>
			<point x="387" y="146"/>
			<point x="339" y="56" type="qcurve" smooth="yes"/>
			<point x="314" y="9"/>
			<point x="248" y="-78"/>
			<point x="171" y="-157"/>
			<point x="84" y="-226"/>
			<point x="37" y="-255" type="qcurve"/>
			<point x="274" y="-255" type="line"/>
			<point x="354" y="-190"/>
			<point x="475" y="-29"/>
			<point x="555" y="152"/>
			<point x="594" y="346"/>
		</contour>
	</outline>
</glyph>
<glyph name="asterisk" format="2">
  <advance width="919"/>
  <unicode hex="002A"/>
  <note>
asterisk
</note>
  <outline>
    <contour>
      <point x="161" y="54" type="line"/>
      <point x="824" y="715" type="line"/>
      <point x="728" y="815" type="line"/>
      <point x="63" y="151" type="line"/>
    </contour>
    <contour>
      <point x="757" y="61" type="line"/>
      <point x="855" y="159" type="line"/>
      <point x="199" y="815" type="line"/>
      <point x="100" y="717" type="line"/>
    </contour>
    <contour>
      <point x="372" y="819" type="line"/>
      <point x="372" y="0" type="line"/>
      <point x="528" y="0" type="line"/>
      <point x="528" y="819" type="line"/>
    </contour>
    <contour>
      <point x="882" y="365" type="line"/>
      <point x="882" y="520" type="line"/>
      <point x="29" y="520" type="line"/>
      <point x="29" y="365" type="line"/>
    </contour>
  </outline>
</glyph>
<glyph name="plus" format="2">
	<advance width="931"/>
	<unicode hex="002B"/>
	<note>
		plus
  </note>
	<outline>
		<contour>
			<point x="813" y="332" type="line"/>
			<point x="813" y="476" type="line"/>
			<point x="537" y="476" type="line"/>
			<point x="537" y="817" type="line"/>
			<point x="381" y="820" type="line"/>
			<point x="381" y="476" type="line"/>
			<point x="99" y="476" type="line"/>
			<point x="99" y="332" type="line"/>
			<point x="381" y="332" type="line"/>
			<point x="381" y="0" type="line"/>
			<point x="537" y="0" type="line"/>
			<point x="537" y="332" type="line"/>
		</contour>
	</outline>
</glyph>
<glyph name="comma" format="2">
	<advance width="475"/>
	<unicode hex="002C"/>
	<note>
		comma
  </note>
	<outline>
		<contour>
			<point x="51" y="-119" type="line"/>
			<point x="76" y="-140" type="line"/>
			<point x="256" y="4" type="line"/>
			<point x="319" y="4" type="line"/>
			<point x="319" y="158" type="line"/>
			<point x="162" y="158" type="line"/>
			<point x="162" y="36" type="line"/>
		</contour>
	</outline>
</glyph>
<glyph name="period" format="2">
	<advance width="390"/>
	<unicode hex="002E"/>
	<note>
		period
  </note>
	<outline>
		<contour>
			<point x="271" y="4" type="line"/>
			<point x="271" y="160" type="line"/>
			<point x="115" y="160" type="line"/>
			<point x="115" y="4" type="line"/>
		</contour>
	</outline>
</glyph>
<glyph name="slash" format="2">
	<advance width="989"/>
	<unicode hex="002F"/>
	<note>
		slash
  </note>
	<outline>
		<contour>
			<point x="265" y="0" type="line"/>
			<point x="843" y="1058" type="line"/>
			<point x="673" y="1061" type="line"/>
			<point x="99" y="0" type="line"/>
		</contour>
	</outline>
</glyph>
<glyph name="colon" format="2">
	<advance width="390"/>
	<unicode hex="003A"/>
	<note>
		colon
  </note>
	<outline>
		<contour>
			<point x="267" y="581" type="line"/>
			<point x="267" y="736" type="line"/>
			<point x="111" y="736" type="line"/>
			<point x="111" y="581" type="line"/>
		</contour>
		<contour>
			<point x="267" y="80" type="line"/>
			<point x="267" y="236" type="line"/>
			<point x="111" y="236" type="line"/>
			<point x="111" y="80" type="line"/>
		</contour>
	</outline>
</glyph>
<glyph name="semicolon" format="2">
	<advance width="383"/>
	<unicode hex="003B"/>
	<note>
		semicolon
  </note>
	<outline>
		<contour>
			<point x="267" y="581" type="line"/>
			<point x="267" y="736" type="line"/>
			<point x="111" y="736" type="line"/>
			<point x="111" y="581" type="line"/>
		</contour>
		<contour>
			<point x="24" y="-61" type="line"/>
			<point x="-1" y="-40" type="line"/>
			<point x="111" y="115" type="line"/>
			<point x="111" y="237" type="line"/>
			<point x="268" y="237" type="line"/>
			<point x="268" y="83" type="line"/>
			<point x="205" y="83" type="line"/>
		</contour>
	</outline>
</glyph>
<glyph name="equal" format="2">
  <advance width="931"/>
  <unicode hex="003D"/>
  <note>
		equal
  </note>
  <outline>
    <contour>
      <point x="824" y="446" type="line"/>
      <point x="824" y="585" type="line"/>
      <point x="110" y="587" type="line"/>
      <point x="110" y="446" type="line"/>
    </contour>
    <contour>
      <point x="824" y="226" type="line"/>
      <point x="824" y="364" type="line"/>
      <point x="110" y="366" type="line"/>
      <point x="110" y="226" type="line"/>
    </contour>
  </outline>
</glyph>
<glyph name="question" format="2">
	<advance width="910"/>
	<unicode hex="003F"/>
	<note>
		question
  </note>
	<outline>
		<contour>
			<point x="502" y="241" type="line"/>
			<point x="502" y="381" type="line" smooth="yes"/>
			<point x="502" y="397"/>
			<point x="504" y="432"/>
			<point x="519" y="468"/>
			<point x="550" y="507"/>
			<point x="578" y="527" type="qcurve" smooth="yes"/>
			<point x="595" y="539"/>
			<point x="648" y="567"/>
			<point x="708" y="605"/>
			<point x="768" y="658"/>
			<point x="817" y="732"/>
			<point x="848" y="831"/>
			<point x="848" y="896" type="qcurve" smooth="yes"/>
			<point x="848" y="944"/>
			<point x="818" y="1033"/>
			<point x="765" y="1110"/>
			<point x="691" y="1172"/>
			<point x="605" y="1215"/>
			<point x="508" y="1235"/>
			<point x="459" y="1231" type="qcurve" smooth="yes"/>
			<point x="376" y="1227"/>
			<point x="247" y="1166"/>
			<point x="158" y="1070"/>
			<point x="112" y="948"/>
			<point x="112" y="882" type="qcurve" smooth="yes"/>
			<point x="112" y="857"/>
			<point x="118" y="820"/>
			<point x="135" y="796"/>
			<point x="165" y="785"/>
			<point x="188" y="785" type="qcurve" smooth="yes"/>
			<point x="216" y="785"/>
			<point x="247" y="799"/>
			<point x="262" y="826"/>
			<point x="265" y="864"/>
			<point x="265" y="888" type="qcurve" smooth="yes"/>
			<point x="265" y="927"/>
			<point x="293" y="995"/>
			<point x="345" y="1047"/>
			<point x="418" y="1077"/>
			<point x="464" y="1078" type="qcurve" smooth="yes"/>
			<point x="494" y="1078"/>
			<point x="552" y="1064"/>
			<point x="603" y="1038"/>
			<point x="647" y="1004"/>
			<point x="678" y="963"/>
			<point x="696" y="919"/>
			<point x="696" y="896" type="qcurve" smooth="yes"/>
			<point x="696" y="855"/>
			<point x="675" y="793"/>
			<point x="630" y="741"/>
			<point x="561" y="693"/>
			<point x="514" y="666" type="qcurve" smooth="yes"/>
			<point x="475" y="644"/>
			<point x="413" y="596"/>
			<point x="369" y="541"/>
			<point x="346" y="477"/>
			<point x="346" y="441" type="qcurve" smooth="yes"/>
			<point x="346" y="241" type="line"/>
		</contour>
		<contour>
			<point x="503" y="4" type="line"/>
			<point x="503" y="160" type="line"/>
			<point x="347" y="160" type="line"/>
			<point x="347" y="4" type="line"/>
		</contour>
	</outline>
</glyph>
<glyph name="multiply" format="2">
  <advance width="992"/>
  <unicode hex="00D7"/>
  <note>
		multiply
  </note>
  <outline>
    <contour>
      <point x="680" y="0" type="line"/>
      <point x="845" y="0" type="line"/>
      <point x="572" y="390" type="line"/>
      <point x="873" y="816" type="line"/>
      <point x="700" y="819" type="line"/>
      <point x="486" y="513" type="line"/>
      <point x="271" y="819" type="line"/>
      <point x="99" y="819" type="line"/>
      <point x="402" y="392" type="line"/>
      <point x="127" y="0" type="line"/>
      <point x="296" y="0" type="line"/>
      <point x="488" y="271" type="line"/>
    </contour>
  </outline>
</glyph>
<glyph name="divide" format="2">
	<advance width="905"/>
	<unicode hex="00F7"/>
	<note>
		divide
  </note>
	<outline>
		<contour>
			<point x="786" y="332" type="line"/>
			<point x="786" y="471" type="line"/>
			<point x="72" y="473" type="line"/>
			<point x="72" y="332" type="line"/>
		</contour>
		<contour>
			<point x="511" y="82" type="line"/>
			<point x="511" y="237" type="line"/>
			<point x="355" y="237" type="line"/>
			<point x="355" y="82" type="line"/>
		</contour>
		<contour>
			<point x="511" y="572" type="line"/>
			<point x="511" y="727" type="line"/>
			<point x="355" y="727" type="line"/>
			<point x="355" y="572" type="line"/>
		</contour>
	</outline>
</glyph>
<glyph name="endash" format="2">
	<advance width="906"/>
	<unicode hex="2013"/>
	<note>
		endash
  </note>
	<outline>
		<contour>
			<point x="786" y="332" type="line"/>
			<point x="786" y="471" type="line"/>
			<point x="72" y="473" type="line"/>
			<point x="72" y="332" type="line"/>
		</contour>
	</outline>
</glyph>
<glyph name="quoteleft" format="2">
  <advance width="487"/>
  <unicode hex="2018"/>
  <note>
		quoteleft
  </note>
  <outline>
    <contour>
      <point x="285" y="960" type="line"/>
      <point x="310" y="981" type="line"/>
      <point x="198" y="1136" type="line"/>
      <point x="198" y="1258" type="line"/>
      <point x="41" y="1258" type="line"/>
      <point x="41" y="1104" type="line"/>
      <point x="104" y="1104" type="line"/>
    </contour>
  </outline>
</glyph>
<glyph name="quoteright" format="2">
	<advance width="487"/>
	<unicode hex="2019"/>
	<note>
		quoteright
  </note>
	<outline>
		<contour>
			<point x="41" y="981" type="line"/>
			<point x="66" y="960" type="line"/>
			<point x="247" y="1104" type="line"/>
			<point x="310" y="1104" type="line"/>
			<point x="310" y="1258" type="line"/>
			<point x="153" y="1258" type="line"/>
			<point x="153" y="1136" type="line"/>
		</contour>
	</outline>
</glyph>
<glyph name="quotedblleft" format="2">
  <advance width="771"/>
  <unicode hex="201C"/>
  <note>
		quotedblleft
  </note>
  <outline>
    <contour>
      <point x="285" y="960" type="line"/>
      <point x="310" y="981" type="line"/>
      <point x="198" y="1136" type="line"/>
      <point x="198" y="1258" type="line"/>
      <point x="41" y="1258" type="line"/>
      <point x="41" y="1104" type="line"/>
      <point x="104" y="1104" type="line"/>
    </contour>
    <contour>
      <point x="568" y="960" type="line"/>
      <point x="593" y="981" type="line"/>
      <point x="482" y="1136" type="line"/>
      <point x="482" y="1258" type="line"/>
      <point x="325" y="1258" type="line"/>
      <point x="325" y="1104" type="line"/>
      <point x="388" y="1104" type="line"/>
    </contour>
  </outline>
</glyph>
<glyph name="quotedblright" format="2">
	<advance width="771"/>
	<unicode hex="201D"/>
	<note>
		quotedblright
  </note>
	<outline>
		<contour>
			<point x="325" y="981" type="line"/>
			<point x="350" y="960" type="line"/>
			<point x="530" y="1104" type="line"/>
			<point x="593" y="1104" type="line"/>
			<point x="593" y="1258" type="line"/>
			<point x="436" y="1258" type="line"/>
			<point x="436" y="1136" type="line"/>
		</contour>
		<contour>
			<point x="41" y="981" type="line"/>
			<point x="66" y="960" type="line"/>
			<point x="247" y="1104" type="line"/>
			<point x="310" y="1104" type="line"/>
			<point x="310" y="1258" type="line"/>
			<point x="153" y="1258" type="line"/>
			<point x="153" y="1136" type="line"/>
		</contour>
	</outline>
</glyph>
<glyph name="uniA900" format="2">
  <advance width="906"/>
  <unicode hex="A900"/>
  <outline>
    <contour>
      <point x="259" y="0" type="curve" smooth="yes"/>
      <point x="614" y="0" type="line" smooth="yes"/>
      <point x="641" y="0"/>
      <point x="667" y="7"/>
      <point x="694" y="20" type="curve" smooth="yes"/>
      <point x="722" y="35"/>
      <point x="746" y="59"/>
      <point x="765" y="93" type="curve" smooth="yes"/>
      <point x="784" y="128"/>
      <point x="793" y="171"/>
      <point x="793" y="222" type="curve" smooth="yes"/>
      <point x="793" y="598" type="line" smooth="yes"/>
      <point x="793" y="741"/>
      <point x="730" y="815"/>
      <point x="603" y="819" type="curve"/>
      <point x="248" y="819" type="line"/>
      <point x="128" y="805"/>
      <point x="68" y="731"/>
      <point x="68" y="598" type="curve" smooth="yes"/>
      <point x="68" y="222" type="line" smooth="yes"/>
      <point x="68" y="155"/>
      <point x="86" y="101"/>
      <point x="122" y="61" type="curve" smooth="yes"/>
      <point x="159" y="20"/>
      <point x="204" y="0"/>
    </contour>
    <contour>
      <point x="595" y="150" type="curve" smooth="yes"/>
      <point x="286" y="152" type="line" smooth="yes"/>
      <point x="245" y="152"/>
      <point x="224" y="175"/>
      <point x="224" y="220" type="curve" smooth="yes"/>
      <point x="224" y="589" type="line" smooth="yes"/>
      <point x="224" y="639"/>
      <point x="241" y="664"/>
      <point x="275" y="665" type="curve" smooth="yes"/>
      <point x="579" y="665" type="line" smooth="yes"/>
      <point x="618" y="665"/>
      <point x="637" y="645"/>
      <point x="637" y="604" type="curve" smooth="yes"/>
      <point x="637" y="212" type="line" smooth="yes"/>
      <point x="637" y="171"/>
      <point x="623" y="150"/>
    </contour>
  </outline>
</glyph>
<glyph name="uniA901" format="2">
	<advance width="906"/>
	<unicode hex="A901"/>
	<note>
		uniA901
  </note>
	<outline>
		<contour>
			<point x="571" y="154" type="qcurve" smooth="yes"/>
			<point x="423" y="154" type="line"/>
			<point x="433" y="163"/>
			<point x="467" y="181"/>
			<point x="508" y="198"/>
			<point x="550" y="211"/>
			<point x="586" y="217"/>
			<point x="611" y="213"/>
			<point x="614" y="206" type="qcurve"/>
			<point x="614" y="186" type="line" smooth="yes"/>
			<point x="614" y="154"/>
		</contour>
		<contour>
			<point x="614" y="531" type="line"/>
			<point x="224" y="531" type="line"/>
			<point x="44" y="510"/>
			<point x="44" y="306" type="qcurve" smooth="yes"/>
			<point x="44" y="222" type="line" smooth="yes"/>
			<point x="44" y="121"/>
			<point x="98" y="61" type="qcurve" smooth="yes"/>
			<point x="153" y="0"/>
			<point x="235" y="0" type="qcurve" smooth="yes"/>
			<point x="590" y="0" type="line" smooth="yes"/>
			<point x="638" y="1"/>
			<point x="716" y="48"/>
			<point x="741" y="93" type="qcurve" smooth="yes"/>
			<point x="748" y="106"/>
			<point x="759" y="133"/>
			<point x="766" y="167"/>
			<point x="769" y="211"/>
			<point x="769" y="241" type="qcurve" smooth="yes"/>
			<point x="769" y="271"/>
			<point x="744" y="314"/>
			<point x="702" y="341"/>
			<point x="648" y="353"/>
			<point x="619" y="353" type="qcurve" smooth="yes"/>
			<point x="567" y="353"/>
			<point x="456" y="329"/>
			<point x="354" y="280"/>
			<point x="267" y="205"/>
			<point x="239" y="154" type="qcurve"/>
			<point x="200" y="166"/>
			<point x="200" y="220" type="qcurve" smooth="yes"/>
			<point x="200" y="296" type="line" smooth="yes"/>
			<point x="200" y="383"/>
			<point x="251" y="384" type="qcurve"/>
			<point x="769" y="384" type="line"/>
			<point x="769" y="598" type="line" smooth="yes"/>
			<point x="769" y="813"/>
			<point x="590" y="819" type="qcurve"/>
			<point x="224" y="819" type="line"/>
			<point x="44" y="798"/>
			<point x="44" y="598" type="qcurve" smooth="yes"/>
			<point x="44" y="564" type="line"/>
			<point x="200" y="564" type="line"/>
			<point x="200" y="588" type="line" smooth="yes"/>
			<point x="200" y="627"/>
			<point x="211" y="651" type="qcurve" smooth="yes"/>
			<point x="218" y="664"/>
			<point x="251" y="665" type="qcurve" smooth="yes"/>
			<point x="568" y="665" type="line" smooth="yes"/>
			<point x="599" y="665"/>
			<point x="604" y="657" type="qcurve" smooth="yes"/>
			<point x="614" y="642"/>
			<point x="614" y="604" type="qcurve" smooth="yes"/>
		</contour>
	</outline>
</glyph>
<glyph name="uniA902" format="2">
	<advance width="906"/>
	<unicode hex="A902"/>
	<note>
		uniA902
  </note>
	<outline>
		<contour>
			<point x="494" y="0" type="line"/>
			<point x="800" y="819" type="line"/>
			<point x="636" y="819" type="line"/>
			<point x="420" y="237" type="line"/>
			<point x="207" y="819" type="line"/>
			<point x="46" y="819" type="line"/>
			<point x="353" y="0" type="line"/>
		</contour>
	</outline>
</glyph>
<glyph name="uniA903" format="2">
  <advance width="906"/>
  <unicode hex="A903"/>
  <note>
uniA903
</note>
  <outline>
    <contour>
      <point x="319" y="472" type="line"/>
      <point x="319" y="601" type="line"/>
      <point x="224" y="601" type="line"/>
      <point x="228" y="663"/>
      <point x="274" y="665" type="qcurve"/>
      <point x="572" y="665" type="line" smooth="yes"/>
      <point x="601" y="665"/>
      <point x="637" y="635"/>
      <point x="637" y="604" type="qcurve" smooth="yes"/>
      <point x="637" y="591" type="line"/>
      <point x="68" y="315" type="line"/>
      <point x="68" y="222" type="line" smooth="yes"/>
      <point x="67" y="176"/>
      <point x="93" y="96"/>
      <point x="143" y="36"/>
      <point x="215" y="1"/>
      <point x="259" y="0" type="qcurve" smooth="yes"/>
      <point x="614" y="0" type="line" smooth="yes"/>
      <point x="654" y="0"/>
      <point x="694" y="20" type="qcurve" smooth="yes"/>
      <point x="736" y="42"/>
      <point x="765" y="93" type="qcurve" smooth="yes"/>
      <point x="779" y="119"/>
      <point x="793" y="191"/>
      <point x="793" y="230" type="qcurve" smooth="yes"/>
      <point x="793" y="332" type="line"/>
      <point x="605" y="332" type="line" smooth="yes"/>
      <point x="558" y="332"/>
      <point x="461" y="316"/>
      <point x="371" y="276"/>
      <point x="292" y="207"/>
      <point x="263" y="154" type="qcurve"/>
      <point x="257" y="154"/>
      <point x="244" y="160"/>
      <point x="232" y="174"/>
      <point x="225" y="196"/>
      <point x="225" y="211" type="qcurve" smooth="yes"/>
      <point x="225" y="230" type="line"/>
      <point x="793" y="505" type="line"/>
      <point x="793" y="598" type="line" smooth="yes"/>
      <point x="793" y="813"/>
      <point x="603" y="819" type="qcurve"/>
      <point x="248" y="819" type="line"/>
      <point x="68" y="798"/>
      <point x="68" y="598" type="qcurve" smooth="yes"/>
      <point x="68" y="472" type="line"/>
    </contour>
    <contour>
      <point x="599" y="154" type="qcurve" smooth="yes"/>
      <point x="452" y="154" type="line"/>
      <point x="460" y="168"/>
      <point x="486" y="183"/>
      <point x="515" y="192"/>
      <point x="543" y="194"/>
      <point x="553" y="194" type="qcurve" smooth="yes"/>
      <point x="636" y="194" type="line"/>
      <point x="635" y="187"/>
      <point x="630" y="172"/>
      <point x="622" y="161"/>
      <point x="609" y="154"/>
    </contour>
  </outline>
</glyph>
<glyph name="uniA904" format="2">
  <advance width="906"/>
  <unicode hex="A904"/>
  <note>
uniA904
</note>
  <outline>
    <contour>
      <point x="224" y="720" type="line"/>
      <point x="224" y="819" type="line"/>
      <point x="68" y="819" type="line"/>
      <point x="68" y="222" type="line" smooth="yes"/>
      <point x="68" y="121"/>
      <point x="122" y="61" type="qcurve" smooth="yes"/>
      <point x="177" y="0"/>
      <point x="259" y="0" type="qcurve" smooth="yes"/>
      <point x="379" y="0" type="line"/>
      <point x="379" y="154" type="line"/>
      <point x="286" y="154" type="line" smooth="yes"/>
      <point x="224" y="154"/>
      <point x="224" y="222" type="qcurve" smooth="yes"/>
      <point x="224" y="509" type="line"/>
      <point x="379" y="665" type="line"/>
      <point x="572" y="665" type="line" smooth="yes"/>
      <point x="601" y="665"/>
      <point x="637" y="635"/>
      <point x="637" y="604" type="qcurve" smooth="yes"/>
      <point x="637" y="-192" type="line" smooth="yes"/>
      <point x="637" y="-253"/>
      <point x="594" y="-253" type="qcurve" smooth="yes"/>
      <point x="479" y="-256" type="line"/>
      <point x="479" y="-410" type="line"/>
      <point x="614" y="-410" type="line" smooth="yes"/>
      <point x="647" y="-410"/>
      <point x="709" y="-382"/>
      <point x="736" y="-358" type="qcurve"/>
      <point x="763" y="-331"/>
      <point x="793" y="-245"/>
      <point x="793" y="-189" type="qcurve" smooth="yes"/>
      <point x="793" y="598" type="line" smooth="yes"/>
      <point x="793" y="813"/>
      <point x="603" y="819" type="qcurve"/>
      <point x="324" y="819" type="line"/>
    </contour>
  </outline>
</glyph>
<glyph name="uniA905" format="2">
  <advance width="906"/>
  <unicode hex="A905"/>
  <note>
		uniA905
  </note>
  <outline>
    <contour>
      <point x="405" y="154" type="line"/>
      <point x="286" y="154" type="line" smooth="yes"/>
      <point x="224" y="154"/>
      <point x="224" y="222" type="qcurve" smooth="yes"/>
      <point x="224" y="589" type="line" smooth="yes"/>
      <point x="224" y="663"/>
      <point x="274" y="665" type="qcurve"/>
      <point x="642" y="665" type="line"/>
      <point x="642" y="560" type="line"/>
      <point x="797" y="560" type="line"/>
      <point x="797" y="819" type="line"/>
      <point x="248" y="819" type="line"/>
      <point x="68" y="798"/>
      <point x="68" y="598" type="qcurve" smooth="yes"/>
      <point x="68" y="222" type="line" smooth="yes"/>
      <point x="68" y="121"/>
      <point x="122" y="61" type="qcurve" smooth="yes"/>
      <point x="177" y="0"/>
      <point x="259" y="0" type="qcurve" smooth="yes"/>
      <point x="405" y="0" type="line"/>
    </contour>
  </outline>
</glyph>
<glyph name="uniA906" format="2">
	<advance width="906"/>
	<unicode hex="A906"/>
	<note>
		uniA906
  </note>
	<outline>
		<contour>
			<point x="434" y="180" type="qcurve" smooth="yes"/>
			<point x="434" y="142"/>
			<point x="462" y="77"/>
			<point x="511" y="28"/>
			<point x="576" y="0"/>
			<point x="613" y="0" type="qcurve" smooth="yes"/>
			<point x="648" y="0"/>
			<point x="710" y="25"/>
			<point x="758" y="68"/>
			<point x="789" y="127"/>
			<point x="792" y="161" type="qcurve"/>
			<point x="793" y="160" type="line"/>
			<point x="793" y="598" type="line" smooth="yes"/>
			<point x="793" y="813"/>
			<point x="603" y="819" type="qcurve"/>
			<point x="418" y="819" type="line"/>
			<point x="372" y="742"/>
			<point x="273" y="581"/>
			<point x="224" y="501" type="qcurve"/>
			<point x="224" y="819" type="line"/>
			<point x="68" y="819" type="line"/>
			<point x="68" y="0" type="line"/>
			<point x="224" y="0" type="line"/>
			<point x="224" y="207" type="line"/>
			<point x="261" y="267"/>
			<point x="328" y="381"/>
			<point x="395" y="492"/>
			<point x="463" y="605"/>
			<point x="499" y="665" type="qcurve"/>
			<point x="582" y="665" type="line" smooth="yes"/>
			<point x="611" y="665"/>
			<point x="637" y="635"/>
			<point x="637" y="604" type="qcurve" smooth="yes"/>
			<point x="637" y="358" type="line"/>
			<point x="625" y="360"/>
			<point x="613" y="360" type="qcurve" smooth="yes"/>
			<point x="576" y="360"/>
			<point x="511" y="331"/>
			<point x="462" y="283"/>
			<point x="434" y="217"/>
		</contour>
		<contour>
			<point x="571" y="180" type="qcurve" smooth="yes"/>
			<point x="571" y="197"/>
			<point x="594" y="222"/>
			<point x="613" y="222" type="qcurve" smooth="yes"/>
			<point x="632" y="222"/>
			<point x="656" y="197"/>
			<point x="656" y="180" type="qcurve" smooth="yes"/>
			<point x="656" y="162"/>
			<point x="632" y="138"/>
			<point x="613" y="138" type="qcurve" smooth="yes"/>
			<point x="594" y="138"/>
			<point x="571" y="162"/>
		</contour>
	</outline>
</glyph>
<glyph name="uniA907" format="2">
	<advance width="906"/>
	<unicode hex="A907"/>
	<note>
		uniA907
  </note>
	<outline>
		<contour>
			<point x="416" y="819" type="line"/>
			<point x="248" y="819" type="line" smooth="yes"/>
			<point x="203" y="819"/>
			<point x="135" y="788"/>
			<point x="90" y="730"/>
			<point x="68" y="648"/>
			<point x="68" y="598" type="qcurve" smooth="yes"/>
			<point x="68" y="222" type="line" smooth="yes"/>
			<point x="68" y="121"/>
			<point x="122" y="61" type="qcurve" smooth="yes"/>
			<point x="177" y="0"/>
			<point x="259" y="0" type="qcurve" smooth="yes"/>
			<point x="614" y="0" type="line" smooth="yes"/>
			<point x="654" y="0"/>
			<point x="694" y="20" type="qcurve" smooth="yes"/>
			<point x="736" y="42"/>
			<point x="765" y="93" type="qcurve" smooth="yes"/>
			<point x="793" y="145"/>
			<point x="793" y="222" type="qcurve" smooth="yes"/>
			<point x="793" y="1229" type="line"/>
			<point x="659" y="1229" type="line"/>
			<point x="547" y="1152" type="line"/>
			<point x="547" y="979" type="line"/>
			<point x="637" y="1047" type="line"/>
			<point x="637" y="819" type="line"/>
			<point x="547" y="819" type="line"/>
			<point x="547" y="663" type="line"/>
			<point x="637" y="663" type="line"/>
			<point x="637" y="214" type="line" smooth="yes"/>
			<point x="637" y="152"/>
			<point x="595" y="152" type="qcurve" smooth="yes"/>
			<point x="286" y="154" type="line" smooth="yes"/>
			<point x="224" y="154"/>
			<point x="224" y="222" type="qcurve" smooth="yes"/>
			<point x="224" y="589" type="line" smooth="yes"/>
			<point x="224" y="664"/>
			<point x="275" y="665" type="qcurve" smooth="yes"/>
			<point x="416" y="665" type="line"/>
		</contour>
	</outline>
</glyph>
<glyph name="uniA908" format="2">
	<advance width="906"/>
	<unicode hex="A908"/>
	<note>
		uniA908
  </note>
	<outline>
		<contour>
			<point x="793" y="341" type="line"/>
			<point x="637" y="341" type="line"/>
			<point x="637" y="214" type="line" smooth="yes"/>
			<point x="637" y="152"/>
			<point x="595" y="152" type="qcurve" smooth="yes"/>
			<point x="286" y="154" type="line" smooth="yes"/>
			<point x="224" y="154"/>
			<point x="224" y="222" type="qcurve" smooth="yes"/>
			<point x="224" y="819" type="line"/>
			<point x="68" y="819" type="line"/>
			<point x="68" y="222" type="line" smooth="yes"/>
			<point x="68" y="121"/>
			<point x="122" y="61" type="qcurve" smooth="yes"/>
			<point x="177" y="0"/>
			<point x="259" y="0" type="qcurve" smooth="yes"/>
			<point x="614" y="0" type="line" smooth="yes"/>
			<point x="654" y="0"/>
			<point x="694" y="20" type="qcurve" smooth="yes"/>
			<point x="736" y="42"/>
			<point x="765" y="93" type="qcurve" smooth="yes"/>
			<point x="793" y="145"/>
			<point x="793" y="222" type="qcurve" smooth="yes"/>
		</contour>
	</outline>
</glyph>
<glyph name="uniA90A" format="2">
	<advance width="1007"/>
	<unicode hex="A90A"/>
	<note>
		uniA90A
  </note>
	<outline>
		<contour>
			<point x="292" y="330" type="qcurve"/>
			<point x="292" y="156" type="line"/>
			<point x="225" y="155" type="line"/>
			<point x="225" y="237" type="line" smooth="yes"/>
			<point x="225" y="253"/>
			<point x="235" y="272"/>
			<point x="242" y="281" type="qcurve" smooth="yes"/>
			<point x="246" y="285"/>
			<point x="260" y="299"/>
			<point x="275" y="313"/>
			<point x="288" y="326"/>
		</contour>
		<contour>
			<point x="70" y="248" type="qcurve"/>
			<point x="70" y="0" type="line"/>
			<point x="446" y="0" type="line"/>
			<point x="446" y="482" type="line"/>
			<point x="628" y="665" type="line"/>
			<point x="659" y="665" type="line" smooth="yes"/>
			<point x="717" y="665"/>
			<point x="717" y="602" type="qcurve" smooth="yes"/>
			<point x="717" y="154" type="line"/>
			<point x="585" y="154" type="line"/>
			<point x="585" y="0" type="line"/>
			<point x="873" y="0" type="line"/>
			<point x="873" y="598" type="line" smooth="yes"/>
			<point x="873" y="813"/>
			<point x="682" y="819" type="qcurve"/>
			<point x="574" y="819" type="line"/>
			<point x="437" y="691" type="line"/>
			<point x="428" y="717"/>
			<point x="398" y="764"/>
			<point x="354" y="799"/>
			<point x="296" y="819"/>
			<point x="259" y="819" type="qcurve" smooth="yes"/>
			<point x="226" y="819"/>
			<point x="158" y="795"/>
			<point x="104" y="746"/>
			<point x="70" y="670"/>
			<point x="70" y="618" type="qcurve" smooth="yes"/>
			<point x="70" y="513" type="line"/>
			<point x="225" y="513" type="line"/>
			<point x="225" y="634" type="line" smooth="yes"/>
			<point x="225" y="644"/>
			<point x="231" y="656"/>
			<point x="241" y="663"/>
			<point x="253" y="665"/>
			<point x="259" y="665" type="qcurve" smooth="yes"/>
			<point x="274" y="665"/>
			<point x="290" y="654"/>
			<point x="290" y="634" type="qcurve" smooth="yes"/>
			<point x="290" y="527" type="line"/>
			<point x="263" y="500"/>
			<point x="219" y="457"/>
			<point x="177" y="417"/>
			<point x="132" y="374"/>
			<point x="105" y="347" type="qcurve" smooth="yes"/>
			<point x="99" y="342"/>
			<point x="88" y="325"/>
			<point x="78" y="301"/>
			<point x="71" y="269"/>
		</contour>
	</outline>
</glyph>
<glyph name="uniA90B" format="2">
  <advance width="906"/>
  <unicode hex="A90B"/>
  <note>
		uniA90B
  </note>
  <outline>
    <contour>
      <point x="637" y="507" type="line"/>
      <point x="224" y="507" type="line"/>
      <point x="224" y="589" type="line" smooth="yes"/>
      <point x="224" y="663"/>
      <point x="274" y="665" type="qcurve"/>
      <point x="579" y="665" type="line" smooth="yes"/>
      <point x="637" y="665"/>
      <point x="637" y="604" type="qcurve" smooth="yes"/>
    </contour>
    <contour>
      <point x="637" y="366" type="line"/>
      <point x="637" y="214" type="line" smooth="yes"/>
      <point x="637" y="152"/>
      <point x="595" y="152" type="qcurve" smooth="yes"/>
      <point x="286" y="154" type="line" smooth="yes"/>
      <point x="238" y="154"/>
      <point x="227" y="195" type="qcurve"/>
      <point x="392" y="195" type="line"/>
      <point x="392" y="328" type="line"/>
      <point x="68" y="328" type="line"/>
      <point x="68" y="224" type="line" smooth="yes"/>
      <point x="68" y="173"/>
      <point x="95" y="91"/>
      <point x="122" y="61" type="qcurve" smooth="yes"/>
      <point x="177" y="0"/>
      <point x="259" y="0" type="qcurve" smooth="yes"/>
      <point x="614" y="0" type="line" smooth="yes"/>
      <point x="654" y="0"/>
      <point x="694" y="20" type="qcurve" smooth="yes"/>
      <point x="736" y="42"/>
      <point x="765" y="93" type="qcurve" smooth="yes"/>
      <point x="779" y="119"/>
      <point x="793" y="185"/>
      <point x="793" y="224" type="qcurve" smooth="yes"/>
      <point x="793" y="598" type="line" smooth="yes"/>
      <point x="793" y="813"/>
      <point x="603" y="819" type="qcurve"/>
      <point x="248" y="819" type="line"/>
      <point x="68" y="798"/>
      <point x="68" y="598" type="qcurve" smooth="yes"/>
      <point x="68" y="366" type="line"/>
    </contour>
  </outline>
</glyph>
<glyph name="uniA90C" format="2">
  <advance width="906"/>
  <unicode hex="A90C"/>
  <outline>
    <contour>
      <point x="637" y="458" type="line"/>
      <point x="353" y="456" type="line"/>
      <point x="374" y="478"/>
      <point x="409" y="515"/>
      <point x="440" y="547"/>
      <point x="469" y="577"/>
      <point x="500" y="609"/>
      <point x="534" y="644"/>
      <point x="554" y="665" type="qcurve"/>
      <point x="579" y="665" type="line" smooth="yes"/>
      <point x="637" y="665"/>
      <point x="637" y="604" type="qcurve" smooth="yes"/>
    </contour>
    <contour>
      <point x="224" y="537" type="line"/>
      <point x="224" y="819" type="line"/>
      <point x="68" y="819" type="line"/>
      <point x="68" y="0" type="line"/>
      <point x="356" y="0" type="line"/>
      <point x="356" y="154" type="line"/>
      <point x="224" y="154" type="line"/>
      <point x="224" y="306" type="line"/>
      <point x="637" y="306" type="line"/>
      <point x="637" y="154" type="line"/>
      <point x="506" y="154" type="line"/>
      <point x="506" y="0" type="line"/>
      <point x="793" y="0" type="line"/>
      <point x="793" y="598" type="line" smooth="yes"/>
      <point x="793" y="705"/>
      <point x="705" y="816"/>
      <point x="610" y="819" type="qcurve" smooth="yes"/>
      <point x="498" y="819" type="line"/>
    </contour>
  </outline>
</glyph>
<glyph name="uniA90D" format="2">
	<advance width="906"/>
	<unicode hex="A90D"/>
	<note>
		uniA90D
  </note>
	<outline>
		<contour>
			<point x="224" y="221" type="qcurve" smooth="yes"/>
			<point x="224" y="597" type="line" smooth="yes"/>
			<point x="224" y="664"/>
			<point x="286" y="664" type="qcurve" smooth="yes"/>
			<point x="588" y="666" type="line" smooth="yes"/>
			<point x="609" y="666"/>
			<point x="637" y="635"/>
			<point x="637" y="605" type="qcurve" smooth="yes"/>
			<point x="637" y="583" type="line"/>
			<point x="487" y="583" type="line"/>
			<point x="487" y="438" type="line"/>
			<point x="793" y="438" type="line"/>
			<point x="793" y="595" type="line" smooth="yes"/>
			<point x="793" y="634"/>
			<point x="779" y="700"/>
			<point x="765" y="725" type="qcurve" smooth="yes"/>
			<point x="736" y="777"/>
			<point x="694" y="798" type="qcurve" smooth="yes"/>
			<point x="654" y="818"/>
			<point x="614" y="818" type="qcurve" smooth="yes"/>
			<point x="259" y="818" type="line" smooth="yes"/>
			<point x="177" y="818"/>
			<point x="122" y="757" type="qcurve" smooth="yes"/>
			<point x="68" y="698"/>
			<point x="68" y="597" type="qcurve" smooth="yes"/>
			<point x="68" y="222" type="line" smooth="yes"/>
			<point x="68" y="121"/>
			<point x="122" y="61" type="qcurve" smooth="yes"/>
			<point x="177" y="0"/>
			<point x="259" y="0" type="qcurve" smooth="yes"/>
			<point x="614" y="0" type="line" smooth="yes"/>
			<point x="654" y="0"/>
			<point x="694" y="20" type="qcurve" smooth="yes"/>
			<point x="736" y="42"/>
			<point x="765" y="93" type="qcurve" smooth="yes"/>
			<point x="793" y="145"/>
			<point x="793" y="223" type="qcurve" smooth="yes"/>
			<point x="793" y="379" type="line"/>
			<point x="487" y="379" type="line"/>
			<point x="487" y="235" type="line"/>
			<point x="637" y="235" type="line"/>
			<point x="637" y="213" type="line" smooth="yes"/>
			<point x="637" y="182"/>
			<point x="609" y="153"/>
			<point x="588" y="153" type="qcurve" smooth="yes"/>
			<point x="286" y="153" type="line" smooth="yes"/>
			<point x="224" y="153"/>
		</contour>
	</outline>
</glyph>
<glyph name="uniA90E" format="2">
  <advance width="906"/>
  <unicode hex="A90E"/>
  <note>
		uniA90E
  </note>
  <outline>
    <contour>
      <point x="580" y="420" type="qcurve" smooth="yes"/>
      <point x="580" y="457"/>
      <point x="551" y="523"/>
      <point x="503" y="571"/>
      <point x="437" y="600"/>
      <point x="400" y="600" type="qcurve" smooth="yes"/>
      <point x="344" y="600"/>
      <point x="266" y="556"/>
      <point x="244" y="510" type="qcurve"/>
      <point x="240" y="517"/>
      <point x="232" y="527"/>
      <point x="227" y="538"/>
      <point x="224" y="553"/>
      <point x="224" y="566" type="qcurve" smooth="yes"/>
      <point x="224" y="589" type="line" smooth="yes"/>
      <point x="224" y="664"/>
      <point x="275" y="665" type="qcurve"/>
      <point x="579" y="665" type="line" smooth="yes"/>
      <point x="637" y="665"/>
      <point x="637" y="604" type="qcurve" smooth="yes"/>
      <point x="637" y="154" type="line"/>
      <point x="506" y="154" type="line"/>
      <point x="506" y="0" type="line"/>
      <point x="793" y="0" type="line"/>
      <point x="793" y="598" type="line" smooth="yes"/>
      <point x="793" y="705"/>
      <point x="705" y="816"/>
      <point x="610" y="819" type="qcurve"/>
      <point x="248" y="819" type="line" smooth="yes"/>
      <point x="158" y="819"/>
      <point x="68" y="690"/>
      <point x="68" y="568" type="qcurve" smooth="yes"/>
      <point x="68" y="492"/>
      <point x="134" y="379"/>
      <point x="196" y="349" type="qcurve"/>
      <point x="68" y="154" type="line"/>
      <point x="68" y="0" type="line"/>
      <point x="357" y="0" type="line"/>
      <point x="357" y="154" type="line"/>
      <point x="257" y="154" type="line"/>
      <point x="261" y="160"/>
      <point x="277" y="187"/>
      <point x="297" y="218"/>
      <point x="317" y="251"/>
      <point x="325" y="264" type="qcurve"/>
      <point x="331" y="261"/>
      <point x="349" y="253"/>
      <point x="368" y="245"/>
      <point x="389" y="240"/>
      <point x="400" y="240" type="qcurve" smooth="yes"/>
      <point x="436" y="240"/>
      <point x="502" y="266"/>
      <point x="551" y="312"/>
      <point x="580" y="379"/>
    </contour>
    <contour>
      <point x="358" y="420" type="qcurve" smooth="yes"/>
      <point x="358" y="437"/>
      <point x="381" y="462"/>
      <point x="400" y="462" type="qcurve" smooth="yes"/>
      <point x="419" y="462"/>
      <point x="442" y="437"/>
      <point x="442" y="420" type="qcurve" smooth="yes"/>
      <point x="442" y="402"/>
      <point x="419" y="378"/>
      <point x="400" y="378" type="qcurve" smooth="yes"/>
      <point x="381" y="378"/>
      <point x="358" y="402"/>
    </contour>
  </outline>
</glyph>
<glyph name="uniA90F" format="2">
  <advance width="906"/>
  <unicode hex="A90F"/>
  <outline>
    <contour>
      <point x="223" y="561" type="line"/>
      <point x="223" y="611" type="line" smooth="yes"/>
      <point x="223" y="646"/>
      <point x="240" y="664"/>
      <point x="274" y="665" type="curve" smooth="yes"/>
      <point x="578" y="665" type="line" smooth="yes"/>
      <point x="617" y="665"/>
      <point x="636" y="645"/>
      <point x="636" y="604" type="curve" smooth="yes"/>
      <point x="636" y="510" type="line"/>
      <point x="616" y="515"/>
      <point x="593" y="518"/>
      <point x="568" y="518" type="curve" smooth="yes"/>
      <point x="247" y="518" type="line"/>
      <point x="189" y="511"/>
      <point x="145" y="494"/>
      <point x="114" y="465" type="curve" smooth="yes"/>
      <point x="83" y="435"/>
      <point x="67" y="388"/>
      <point x="67" y="323" type="curve" smooth="yes"/>
      <point x="67" y="154" type="line"/>
      <point x="11" y="154" type="line"/>
      <point x="11" y="0" type="line"/>
      <point x="223" y="0" type="line"/>
      <point x="223" y="321" type="line" smooth="yes"/>
      <point x="223" y="347"/>
      <point x="226" y="364"/>
      <point x="264" y="364" type="curve" smooth="yes"/>
      <point x="578" y="364" type="line" smooth="yes"/>
      <point x="617" y="364"/>
      <point x="636" y="344"/>
      <point x="636" y="303" type="curve" smooth="yes"/>
      <point x="636" y="214" type="line" smooth="yes"/>
      <point x="636" y="174"/>
      <point x="622" y="154"/>
      <point x="594" y="154" type="curve" smooth="yes"/>
      <point x="516" y="154" type="line"/>
      <point x="516" y="0" type="line"/>
      <point x="613" y="0" type="line" smooth="yes"/>
      <point x="640" y="0"/>
      <point x="666" y="7"/>
      <point x="693" y="20" type="curve" smooth="yes"/>
      <point x="722" y="35"/>
      <point x="745" y="59"/>
      <point x="764" y="93" type="curve" smooth="yes"/>
      <point x="783" y="128"/>
      <point x="792" y="172"/>
      <point x="792" y="224" type="curve" smooth="yes"/>
      <point x="792" y="598" type="line" smooth="yes"/>
      <point x="792" y="741"/>
      <point x="729" y="815"/>
      <point x="602" y="819" type="curve"/>
      <point x="247" y="819" type="line"/>
      <point x="127" y="805"/>
      <point x="67" y="731"/>
      <point x="67" y="598" type="curve" smooth="yes"/>
      <point x="67" y="561" type="line"/>
    </contour>
  </outline>
</glyph>
<glyph name="uniA910" format="2">
  <advance width="906"/>
  <unicode hex="A910"/>
  <outline>
    <contour>
      <point x="359" y="394" type="curve"/>
      <point x="359" y="252" type="line"/>
      <point x="544" y="154" type="line"/>
      <point x="339" y="154" type="line"/>
      <point x="339" y="0" type="line"/>
      <point x="777" y="0" type="line"/>
      <point x="777" y="154" type="line"/>
      <point x="656" y="246" type="line"/>
      <point x="765" y="246"/>
      <point x="803" y="367"/>
      <point x="806" y="481" type="curve"/>
      <point x="803" y="590"/>
      <point x="770" y="673"/>
      <point x="713" y="730" type="curve" smooth="yes"/>
      <point x="656" y="786"/>
      <point x="575" y="816"/>
      <point x="479" y="819" type="curve"/>
      <point x="356" y="814"/>
      <point x="287" y="780"/>
      <point x="224" y="695" type="curve"/>
      <point x="224" y="819" type="line"/>
      <point x="68" y="819" type="line"/>
      <point x="68" y="-188" type="line" smooth="yes"/>
      <point x="68" y="-255"/>
      <point x="86" y="-309"/>
      <point x="122" y="-348" type="curve" smooth="yes"/>
      <point x="159" y="-389"/>
      <point x="204" y="-410"/>
      <point x="259" y="-410" type="curve" smooth="yes"/>
      <point x="401" y="-410" type="line"/>
      <point x="401" y="-257" type="line"/>
      <point x="286" y="-257" type="line" smooth="yes"/>
      <point x="245" y="-257"/>
      <point x="224" y="-235"/>
      <point x="224" y="-190" type="curve" smooth="yes"/>
      <point x="224" y="419" type="line"/>
      <point x="241" y="480"/>
      <point x="269" y="529"/>
      <point x="301" y="566" type="curve" smooth="yes"/>
      <point x="317" y="584"/>
      <point x="334" y="600"/>
      <point x="350" y="612" type="curve" smooth="yes"/>
      <point x="394" y="646"/>
      <point x="448" y="667"/>
      <point x="479" y="667" type="curve" smooth="yes"/>
      <point x="585" y="667"/>
      <point x="652" y="583"/>
      <point x="652" y="478" type="curve" smooth="yes"/>
      <point x="652" y="417"/>
      <point x="613" y="380"/>
      <point x="556" y="370" type="curve" smooth="yes"/>
      <point x="500" y="359"/>
      <point x="423" y="371"/>
    </contour>
  </outline>
</glyph>
<glyph name="uniA911" format="2">
  <advance width="906"/>
  <unicode hex="A911"/>
  <note>
uniA911
</note>
  <outline>
    <contour>
      <point x="236" y="-195" type="qcurve" smooth="yes"/>
      <point x="236" y="1" type="line"/>
      <point x="240" y="1"/>
      <point x="249" y="0"/>
      <point x="254" y="0" type="qcurve" smooth="yes"/>
      <point x="608" y="0" type="line" smooth="yes"/>
      <point x="693" y="0"/>
      <point x="748" y="60" type="qcurve" smooth="yes"/>
      <point x="776" y="90"/>
      <point x="803" y="174"/>
      <point x="803" y="226" type="qcurve" smooth="yes"/>
      <point x="803" y="598" type="line" smooth="yes"/>
      <point x="803" y="799"/>
      <point x="622" y="819" type="qcurve"/>
      <point x="260" y="819" type="line"/>
      <point x="164" y="816"/>
      <point x="75" y="705"/>
      <point x="75" y="598" type="qcurve" smooth="yes"/>
      <point x="75" y="437" type="line"/>
      <point x="381" y="437" type="line"/>
      <point x="381" y="576" type="line"/>
      <point x="367" y="576"/>
      <point x="329" y="577"/>
      <point x="289" y="577"/>
      <point x="248" y="578"/>
      <point x="231" y="578" type="qcurve"/>
      <point x="231" y="604" type="line" smooth="yes"/>
      <point x="231" y="616"/>
      <point x="237" y="639"/>
      <point x="244" y="650" type="qcurve" smooth="yes"/>
      <point x="253" y="665"/>
      <point x="290" y="665" type="qcurve" smooth="yes"/>
      <point x="596" y="665" type="line"/>
      <point x="647" y="664"/>
      <point x="647" y="589" type="qcurve" smooth="yes"/>
      <point x="647" y="223" type="line" smooth="yes"/>
      <point x="647" y="189"/>
      <point x="618" y="156"/>
      <point x="584" y="156" type="qcurve" smooth="yes"/>
      <point x="275" y="154" type="line" smooth="yes"/>
      <point x="252" y="154"/>
      <point x="244" y="168" type="qcurve" smooth="yes"/>
      <point x="231" y="189"/>
      <point x="231" y="216" type="qcurve" smooth="yes"/>
      <point x="231" y="238" type="line"/>
      <point x="381" y="238" type="line"/>
      <point x="381" y="382" type="line"/>
      <point x="75" y="382" type="line"/>
      <point x="75" y="-185" type="line" smooth="yes"/>
      <point x="75" y="-302"/>
      <point x="132" y="-356" type="qcurve" smooth="yes"/>
      <point x="187" y="-410"/>
      <point x="254" y="-410" type="qcurve" smooth="yes"/>
      <point x="612" y="-410" type="line" smooth="yes"/>
      <point x="651" y="-410"/>
      <point x="714" y="-387"/>
      <point x="743" y="-364" type="qcurve"/>
      <point x="743" y="-364" type="line"/>
      <point x="803" y="-316"/>
      <point x="803" y="-212" type="qcurve" smooth="yes"/>
      <point x="803" y="-54" type="line"/>
      <point x="502" y="-54" type="line"/>
      <point x="502" y="-192" type="line"/>
      <point x="647" y="-192" type="line"/>
      <point x="647" y="-202"/>
      <point x="645" y="-220"/>
      <point x="644" y="-224" type="qcurve"/>
      <point x="641" y="-242"/>
      <point x="615" y="-258"/>
      <point x="586" y="-258" type="qcurve" smooth="yes"/>
      <point x="281" y="-256" type="line" smooth="yes"/>
      <point x="270" y="-256"/>
      <point x="257" y="-250"/>
      <point x="250" y="-242" type="qcurve" smooth="yes"/>
      <point x="236" y="-224"/>
    </contour>
  </outline>
</glyph>
<glyph name="uniA912" format="2">
  <advance width="906"/>
  <unicode hex="A912"/>
  <outline>
    <contour>
      <point x="525" y="180" type="curve" smooth="yes"/>
      <point x="525" y="203"/>
      <point x="542" y="222"/>
      <point x="567" y="222" type="curve" smooth="yes"/>
      <point x="592" y="222"/>
      <point x="610" y="203"/>
      <point x="610" y="180" type="curve" smooth="yes"/>
      <point x="610" y="156"/>
      <point x="592" y="138"/>
      <point x="567" y="138" type="curve" smooth="yes"/>
      <point x="542" y="138"/>
      <point x="525" y="156"/>
    </contour>
    <contour>
      <point x="567" y="360" type="curve" smooth="yes"/>
      <point x="468" y="360"/>
      <point x="388" y="278"/>
      <point x="388" y="180" type="curve" smooth="yes"/>
      <point x="388" y="80"/>
      <point x="468" y="0"/>
      <point x="567" y="0" type="curve" smooth="yes"/>
      <point x="673" y="3"/>
      <point x="747" y="83"/>
      <point x="747" y="180" type="curve" smooth="yes"/>
      <point x="747" y="266" type="line" smooth="yes"/>
      <point x="749" y="318"/>
      <point x="740" y="386"/>
      <point x="707" y="443" type="curve" smooth="yes"/>
      <point x="683" y="484"/>
      <point x="644" y="517"/>
      <point x="586" y="537" type="curve" smooth="yes"/>
      <point x="556" y="547"/>
      <point x="522" y="552"/>
      <point x="482" y="552" type="curve" smooth="yes"/>
      <point x="395" y="552"/>
      <point x="266" y="506"/>
      <point x="206" y="438" type="curve"/>
      <point x="206" y="662" type="line"/>
      <point x="747" y="551" type="line"/>
      <point x="747" y="702" type="line"/>
      <point x="178" y="819" type="line"/>
      <point x="50" y="819" type="line"/>
      <point x="50" y="0" type="line"/>
      <point x="206" y="0" type="line"/>
      <point x="206" y="155" type="line"/>
      <point x="210" y="212"/>
      <point x="253" y="274"/>
      <point x="302" y="318" type="curve" smooth="yes"/>
      <point x="351" y="361"/>
      <point x="425" y="398"/>
      <point x="482" y="398" type="curve" smooth="yes"/>
      <point x="526" y="398"/>
      <point x="566" y="392"/>
      <point x="587" y="359" type="curve"/>
      <point x="582" y="359"/>
      <point x="579" y="359"/>
      <point x="576" y="360" type="curve" smooth="yes"/>
      <point x="574" y="360"/>
      <point x="571" y="360"/>
    </contour>
  </outline>
</glyph>
<glyph name="uniA914" format="2">
	<advance width="906"/>
	<unicode hex="A914"/>
	<note>
		uniA914
  </note>
	<outline>
		<contour>
			<point x="64" y="505" type="line"/>
			<point x="633" y="229" type="line"/>
			<point x="632" y="216" type="line" smooth="yes"/>
			<point x="632" y="210"/>
			<point x="629" y="189"/>
			<point x="620" y="169"/>
			<point x="606" y="154"/>
			<point x="595" y="154" type="qcurve" smooth="yes"/>
			<point x="266" y="154" type="line" smooth="yes"/>
			<point x="252" y="154"/>
			<point x="234" y="163"/>
			<point x="224" y="179"/>
			<point x="220" y="203"/>
			<point x="220" y="219" type="qcurve"/>
			<point x="315" y="219" type="line"/>
			<point x="315" y="348" type="line"/>
			<point x="64" y="348" type="line"/>
			<point x="64" y="-189" type="line" smooth="yes"/>
			<point x="64" y="-293"/>
			<point x="122" y="-351" type="qcurve"/>
			<point x="121" y="-351" type="line"/>
			<point x="180" y="-410"/>
			<point x="255" y="-410" type="qcurve" smooth="yes"/>
			<point x="423" y="-410" type="line"/>
			<point x="423" y="-256" type="line"/>
			<point x="281" y="-256" type="line" smooth="yes"/>
			<point x="220" y="-256"/>
			<point x="220" y="-191" type="qcurve" smooth="yes"/>
			<point x="220" y="2" type="line"/>
			<point x="227" y="1"/>
			<point x="246" y="0"/>
			<point x="255" y="0" type="qcurve" smooth="yes"/>
			<point x="609" y="0" type="line" smooth="yes"/>
			<point x="639" y="0"/>
			<point x="689" y="19"/>
			<point x="729" y="52"/>
			<point x="759" y="94"/>
			<point x="779" y="140"/>
			<point x="789" y="186"/>
			<point x="789" y="207" type="qcurve" smooth="yes"/>
			<point x="789" y="329" type="line"/>
			<point x="220" y="590" type="line"/>
			<point x="220" y="599" type="line" smooth="yes"/>
			<point x="220" y="617"/>
			<point x="229" y="643"/>
			<point x="245" y="658"/>
			<point x="267" y="665"/>
			<point x="280" y="665" type="qcurve" smooth="yes"/>
			<point x="575" y="665" type="line" smooth="yes"/>
			<point x="603" y="665"/>
			<point x="632" y="631"/>
			<point x="633" y="602" type="qcurve"/>
			<point x="538" y="601" type="line"/>
			<point x="537" y="472" type="line"/>
			<point x="789" y="472" type="line"/>
			<point x="789" y="592" type="line" smooth="yes"/>
			<point x="789" y="699"/>
			<point x="693" y="816"/>
			<point x="598" y="819" type="qcurve"/>
			<point x="244" y="819" type="line"/>
			<point x="154" y="809"/>
			<point x="64" y="708"/>
			<point x="64" y="608" type="qcurve" smooth="yes"/>
		</contour>
	</outline>
</glyph>
<glyph name="uniA915" format="2">
  <advance width="906"/>
  <unicode hex="A915"/>
  <note>
uniA915
</note>
  <outline>
    <contour>
      <point x="637" y="630" type="qcurve"/>
      <point x="224" y="426" type="line"/>
      <point x="224" y="589" type="line" smooth="yes"/>
      <point x="224" y="663"/>
      <point x="274" y="665" type="qcurve"/>
      <point x="551" y="665" type="line" smooth="yes"/>
      <point x="565" y="665"/>
      <point x="593" y="665"/>
      <point x="616" y="659"/>
      <point x="633" y="644"/>
    </contour>
    <contour>
      <point x="226" y="260" type="qcurve"/>
      <point x="793" y="544" type="line"/>
      <point x="793" y="598" type="line" smooth="yes"/>
      <point x="793" y="813"/>
      <point x="603" y="819" type="qcurve"/>
      <point x="248" y="819" type="line"/>
      <point x="68" y="798"/>
      <point x="68" y="598" type="qcurve" smooth="yes"/>
      <point x="68" y="222" type="line" smooth="yes"/>
      <point x="68" y="121"/>
      <point x="122" y="61" type="qcurve" smooth="yes"/>
      <point x="177" y="0"/>
      <point x="259" y="0" type="qcurve" smooth="yes"/>
      <point x="614" y="0" type="line" smooth="yes"/>
      <point x="654" y="0"/>
      <point x="694" y="20" type="qcurve" smooth="yes"/>
      <point x="736" y="42"/>
      <point x="765" y="93" type="qcurve" smooth="yes"/>
      <point x="779" y="119"/>
      <point x="793" y="185"/>
      <point x="793" y="224" type="qcurve" smooth="yes"/>
      <point x="793" y="354" type="line"/>
      <point x="542" y="354" type="line"/>
      <point x="542" y="213" type="line"/>
      <point x="637" y="213" type="line"/>
      <point x="637" y="152"/>
      <point x="595" y="152" type="qcurve" smooth="yes"/>
      <point x="286" y="154" type="line" smooth="yes"/>
      <point x="259" y="154"/>
      <point x="234" y="174"/>
      <point x="225" y="205"/>
      <point x="226" y="242"/>
    </contour>
  </outline>
</glyph>
<glyph name="uniA916" format="2">
	<advance width="906"/>
	<unicode hex="A916"/>
	<note>
		uniA916
  </note>
	<outline>
		<contour>
			<point x="476" y="1010" type="line"/>
			<point x="476" y="873" type="line"/>
			<point x="794" y="873" type="line"/>
			<point x="794" y="1011" type="line" smooth="yes"/>
			<point x="794" y="1111"/>
			<point x="745" y="1161" type="qcurve"/>
			<point x="745" y="1161" type="line"/>
			<point x="697" y="1209"/>
			<point x="606" y="1224" type="qcurve"/>
			<point x="252" y="1224" type="line"/>
			<point x="157" y="1219"/>
			<point x="69" y="1103"/>
			<point x="69" y="992" type="qcurve" smooth="yes"/>
			<point x="69" y="244" type="line" smooth="yes"/>
			<point x="69" y="103"/>
			<point x="116" y="52" type="qcurve" smooth="yes"/>
			<point x="140" y="26"/>
			<point x="199" y="0"/>
			<point x="241" y="0" type="qcurve" smooth="yes"/>
			<point x="346" y="0" type="line"/>
			<point x="346" y="152" type="line"/>
			<point x="266" y="152" type="line" smooth="yes"/>
			<point x="243" y="152"/>
			<point x="236" y="161" type="qcurve" smooth="yes"/>
			<point x="237" y="161" type="line"/>
			<point x="231" y="171"/>
			<point x="225" y="210"/>
			<point x="225" y="239" type="qcurve" smooth="yes"/>
			<point x="225" y="542" type="line" smooth="yes"/>
			<point x="225" y="646"/>
			<point x="288" y="667" type="qcurve"/>
			<point x="587" y="667" type="line" smooth="yes"/>
			<point x="622" y="667"/>
			<point x="627" y="655" type="qcurve" smooth="yes"/>
			<point x="638" y="633"/>
			<point x="638" y="582" type="qcurve" smooth="yes"/>
			<point x="638" y="0" type="line"/>
			<point x="851" y="0" type="line"/>
			<point x="851" y="154" type="line"/>
			<point x="794" y="154" type="line"/>
			<point x="794" y="578" type="line" smooth="yes"/>
			<point x="794" y="711"/>
			<point x="752" y="760" type="qcurve" smooth="yes"/>
			<point x="710" y="808"/>
			<point x="614" y="825" type="qcurve"/>
			<point x="301" y="825" type="line" smooth="yes"/>
			<point x="280" y="825"/>
			<point x="240" y="822"/>
			<point x="225" y="816" type="qcurve"/>
			<point x="225" y="998" type="line" smooth="yes"/>
			<point x="225" y="1026"/>
			<point x="242" y="1051" type="qcurve" smooth="yes"/>
			<point x="255" y="1070"/>
			<point x="283" y="1070" type="qcurve" smooth="yes"/>
			<point x="570" y="1070" type="line" smooth="yes"/>
			<point x="638" y="1070"/>
			<point x="638" y="1037" type="qcurve" smooth="yes"/>
			<point x="638" y="1010" type="line"/>
		</contour>
	</outline>
</glyph>
<glyph name="uniA917" format="2">
	<advance width="904"/>
	<unicode hex="A917"/>
	<note>
		uniA917
  </note>
	<outline>
		<contour>
			<point x="259" y="0" type="qcurve" smooth="yes"/>
			<point x="600" y="0" type="line" smooth="yes"/>
			<point x="682" y="0"/>
			<point x="738" y="61" type="qcurve" smooth="yes"/>
			<point x="791" y="121"/>
			<point x="791" y="222" type="qcurve" smooth="yes"/>
			<point x="791" y="819" type="line"/>
			<point x="518" y="819" type="line"/>
			<point x="518" y="665" type="line"/>
			<point x="635" y="665" type="line"/>
			<point x="635" y="296" type="line"/>
			<point x="610" y="320"/>
			<point x="557" y="371"/>
			<point x="504" y="420"/>
			<point x="453" y="468"/>
			<point x="430" y="490" type="qcurve"/>
			<point x="407" y="468"/>
			<point x="356" y="420"/>
			<point x="303" y="371"/>
			<point x="250" y="320"/>
			<point x="224" y="296" type="qcurve"/>
			<point x="224" y="665" type="line"/>
			<point x="341" y="665" type="line"/>
			<point x="341" y="819" type="line"/>
			<point x="68" y="819" type="line"/>
			<point x="68" y="222" type="line" smooth="yes"/>
			<point x="68" y="121"/>
			<point x="122" y="61" type="qcurve" smooth="yes"/>
			<point x="177" y="0"/>
		</contour>
		<contour>
			<point x="561" y="154" type="line"/>
			<point x="298" y="154" type="line"/>
			<point x="430" y="287" type="line"/>
		</contour>
	</outline>
</glyph>
<glyph name="uniA91A" format="2">
  <advance width="906"/>
  <unicode hex="A91A"/>
  <note>
		uniA91A
  </note>
  <outline>
    <contour>
      <point x="224" y="154" type="line"/>
      <point x="224" y="509" type="line"/>
      <point x="377" y="665" type="line"/>
      <point x="579" y="665" type="line" smooth="yes"/>
      <point x="637" y="665"/>
      <point x="637" y="604" type="qcurve" smooth="yes"/>
      <point x="637" y="-198" type="line" smooth="yes"/>
      <point x="637" y="-260"/>
      <point x="594" y="-260" type="qcurve" smooth="yes"/>
      <point x="479" y="-262" type="line"/>
      <point x="479" y="-410" type="line"/>
      <point x="614" y="-410" type="line" smooth="yes"/>
      <point x="647" y="-410"/>
      <point x="709" y="-382"/>
      <point x="736" y="-358" type="qcurve"/>
      <point x="763" y="-331"/>
      <point x="793" y="-245"/>
      <point x="793" y="-189" type="qcurve" smooth="yes"/>
      <point x="793" y="598" type="line" smooth="yes"/>
      <point x="793" y="813"/>
      <point x="603" y="819" type="qcurve"/>
      <point x="323" y="819" type="line"/>
      <point x="224" y="721" type="line"/>
      <point x="224" y="819" type="line"/>
      <point x="68" y="819" type="line"/>
      <point x="68" y="0" type="line"/>
      <point x="379" y="0" type="line"/>
      <point x="379" y="154" type="line"/>
    </contour>
  </outline>
</glyph>
<glyph name="uniA91B" format="2">
	<advance width="1268"/>
	<unicode hex="A91B"/>
	<note>
		uniA91B
  </note>
	<outline>
		<contour>
			<point x="971" y="154" type="line"/>
			<point x="824" y="154" type="line"/>
			<point x="824" y="0" type="line"/>
			<point x="1127" y="0" type="line"/>
			<point x="1127" y="598" type="line" smooth="yes"/>
			<point x="1127" y="813"/>
			<point x="936" y="819" type="qcurve"/>
			<point x="736" y="819" type="line" smooth="yes"/>
			<point x="688" y="818"/>
			<point x="612" y="789"/>
			<point x="559" y="733"/>
			<point x="530" y="652"/>
			<point x="530" y="598" type="qcurve" smooth="yes"/>
			<point x="530" y="226" type="line" smooth="yes"/>
			<point x="530" y="194"/>
			<point x="511" y="173" type="qcurve" smooth="yes"/>
			<point x="502" y="164"/>
			<point x="474" y="154"/>
			<point x="453" y="154" type="qcurve" smooth="yes"/>
			<point x="454" y="154" type="line"/>
			<point x="292" y="156" type="line" smooth="yes"/>
			<point x="230" y="156"/>
			<point x="230" y="224" type="qcurve" smooth="yes"/>
			<point x="230" y="665" type="line"/>
			<point x="392" y="665" type="line"/>
			<point x="392" y="819" type="line"/>
			<point x="74" y="819" type="line"/>
			<point x="74" y="222" type="line" smooth="yes"/>
			<point x="74" y="118"/>
			<point x="131" y="59" type="qcurve" smooth="yes"/>
			<point x="190" y="0"/>
			<point x="265" y="0" type="qcurve" smooth="yes"/>
			<point x="476" y="0" type="line" smooth="yes"/>
			<point x="560" y="0"/>
			<point x="621" y="52" type="qcurve" smooth="yes"/>
			<point x="686" y="106"/>
			<point x="686" y="220" type="qcurve" smooth="yes"/>
			<point x="686" y="589" type="line"/>
			<point x="682" y="665"/>
			<point x="747" y="665" type="qcurve" smooth="yes"/>
			<point x="906" y="665" type="line" smooth="yes"/>
			<point x="934" y="665"/>
			<point x="971" y="635"/>
			<point x="971" y="604" type="qcurve" smooth="yes"/>
		</contour>
	</outline>
</glyph>
<glyph name="uniA91C" format="2">
  <advance width="1148"/>
  <unicode hex="A91C"/>
  <outline>
    <contour>
      <point x="1027" y="-191" type="curve" smooth="yes"/>
      <point x="1027" y="598" type="line" smooth="yes"/>
      <point x="1027" y="741"/>
      <point x="964" y="815"/>
      <point x="837" y="819" type="curve" smooth="yes"/>
      <point x="709" y="819" type="line"/>
      <point x="709" y="665" type="line"/>
      <point x="813" y="665" type="line" smooth="yes"/>
      <point x="852" y="665"/>
      <point x="871" y="645"/>
      <point x="871" y="604" type="curve" smooth="yes"/>
      <point x="871" y="212" type="line" smooth="yes"/>
      <point x="871" y="171"/>
      <point x="857" y="151"/>
      <point x="828" y="151" type="curve" smooth="yes"/>
      <point x="685" y="149" type="line" smooth="yes"/>
      <point x="650" y="149"/>
      <point x="632" y="176"/>
      <point x="632" y="231" type="curve" smooth="yes"/>
      <point x="632" y="598" type="line" smooth="yes"/>
      <point x="632" y="741"/>
      <point x="568" y="815"/>
      <point x="441" y="819" type="curve" smooth="yes"/>
      <point x="252" y="819" type="line"/>
      <point x="132" y="805"/>
      <point x="72" y="731"/>
      <point x="72" y="598" type="curve" smooth="yes"/>
      <point x="72" y="222" type="line" smooth="yes"/>
      <point x="72" y="155"/>
      <point x="90" y="101"/>
      <point x="126" y="61" type="curve" smooth="yes"/>
      <point x="163" y="20"/>
      <point x="208" y="0"/>
      <point x="263" y="0" type="curve" smooth="yes"/>
      <point x="383" y="0" type="line"/>
      <point x="383" y="152" type="line"/>
      <point x="290" y="152" type="line" smooth="yes"/>
      <point x="249" y="152"/>
      <point x="228" y="177"/>
      <point x="228" y="222" type="curve" smooth="yes"/>
      <point x="228" y="589" type="line" smooth="yes"/>
      <point x="228" y="638"/>
      <point x="245" y="664"/>
      <point x="278" y="665" type="curve" smooth="yes"/>
      <point x="411" y="665" type="line" smooth="yes"/>
      <point x="449" y="665"/>
      <point x="468" y="645"/>
      <point x="468" y="604" type="curve" smooth="yes"/>
      <point x="468" y="221" type="line" smooth="yes"/>
      <point x="468" y="154"/>
      <point x="486" y="101"/>
      <point x="522" y="62" type="curve" smooth="yes"/>
      <point x="559" y="21"/>
      <point x="604" y="0"/>
      <point x="659" y="0" type="curve" smooth="yes"/>
      <point x="854" y="0" type="line" smooth="yes"/>
      <point x="857" y="0"/>
      <point x="860" y="0"/>
      <point x="863" y="0" type="curve" smooth="yes"/>
      <point x="866" y="1"/>
      <point x="868" y="1"/>
      <point x="871" y="1" type="curve"/>
      <point x="871" y="-200" type="line" smooth="yes"/>
      <point x="871" y="-239"/>
      <point x="857" y="-268"/>
      <point x="828" y="-268" type="curve" smooth="yes"/>
      <point x="305" y="-266" type="line" smooth="yes"/>
      <point x="269" y="-266"/>
      <point x="254" y="-233"/>
      <point x="251" y="-188" type="curve"/>
      <point x="402" y="-188" type="line"/>
      <point x="402" y="-51" type="line"/>
      <point x="87" y="-51" type="line"/>
      <point x="87" y="-191" type="line" smooth="yes"/>
      <point x="87" y="-258"/>
      <point x="105" y="-311"/>
      <point x="141" y="-350" type="curve" smooth="yes"/>
      <point x="178" y="-390"/>
      <point x="223" y="-410"/>
      <point x="278" y="-410" type="curve" smooth="yes"/>
      <point x="847" y="-410" type="line" smooth="yes"/>
      <point x="891" y="-410"/>
      <point x="934" y="-390"/>
      <point x="970" y="-358" type="curve" smooth="yes"/>
      <point x="1006" y="-322"/>
      <point x="1027" y="-266"/>
    </contour>
  </outline>
</glyph>
<glyph name="uniA91E" format="2">
  <advance width="906"/>
  <unicode hex="A91E"/>
  <outline>
    <contour>
      <point x="637" y="1" type="curve"/>
      <point x="637" y="-195" type="line" smooth="yes"/>
      <point x="637" y="-232"/>
      <point x="623" y="-256"/>
      <point x="595" y="-256" type="curve" smooth="yes"/>
      <point x="286" y="-258" type="line" smooth="yes"/>
      <point x="247" y="-258"/>
      <point x="231" y="-249"/>
      <point x="226" y="-226" type="curve" smooth="yes"/>
      <point x="225" y="-221"/>
      <point x="224" y="-207"/>
      <point x="224" y="-192" type="curve"/>
      <point x="367" y="-192" type="line"/>
      <point x="367" y="-54" type="line"/>
      <point x="68" y="-54" type="line"/>
      <point x="68" y="-212" type="line" smooth="yes"/>
      <point x="68" y="-281"/>
      <point x="88" y="-331"/>
      <point x="127" y="-364" type="curve" smooth="yes"/>
      <point x="166" y="-395"/>
      <point x="210" y="-410"/>
      <point x="259" y="-410" type="curve" smooth="yes"/>
      <point x="614" y="-410" type="line" smooth="yes"/>
      <point x="658" y="-410"/>
      <point x="699" y="-392"/>
      <point x="736" y="-356" type="curve" smooth="yes"/>
      <point x="774" y="-320"/>
      <point x="793" y="-263"/>
      <point x="793" y="-185" type="curve" smooth="yes"/>
      <point x="793" y="380" type="line"/>
      <point x="487" y="380" type="line"/>
      <point x="487" y="236" type="line"/>
      <point x="637" y="236" type="line"/>
      <point x="637" y="214" type="line" smooth="yes"/>
      <point x="637" y="173"/>
      <point x="623" y="152"/>
      <point x="595" y="152" type="curve" smooth="yes"/>
      <point x="286" y="154" type="line" smooth="yes"/>
      <point x="245" y="154"/>
      <point x="224" y="177"/>
      <point x="224" y="222" type="curve" smooth="yes"/>
      <point x="224" y="589" type="line" smooth="yes"/>
      <point x="224" y="638"/>
      <point x="241" y="664"/>
      <point x="274" y="665" type="curve" smooth="yes"/>
      <point x="579" y="665" type="line" smooth="yes"/>
      <point x="618" y="665"/>
      <point x="637" y="645"/>
      <point x="637" y="604" type="curve" smooth="yes"/>
      <point x="637" y="578" type="line"/>
      <point x="487" y="576" type="line"/>
      <point x="487" y="437" type="line"/>
      <point x="793" y="437" type="line"/>
      <point x="793" y="598" type="line" smooth="yes"/>
      <point x="793" y="741"/>
      <point x="730" y="815"/>
      <point x="603" y="819" type="curve"/>
      <point x="248" y="819" type="line"/>
      <point x="128" y="805"/>
      <point x="68" y="731"/>
      <point x="68" y="598" type="curve" smooth="yes"/>
      <point x="68" y="222" type="line" smooth="yes"/>
      <point x="68" y="155"/>
      <point x="86" y="101"/>
      <point x="122" y="61" type="curve" smooth="yes"/>
      <point x="159" y="20"/>
      <point x="204" y="0"/>
      <point x="259" y="0" type="curve" smooth="yes"/>
      <point x="621" y="0" type="line" smooth="yes"/>
      <point x="624" y="0"/>
      <point x="627" y="0"/>
      <point x="630" y="0" type="curve" smooth="yes"/>
      <point x="632" y="0"/>
      <point x="634" y="0"/>
    </contour>
  </outline>
</glyph>
<glyph name="uniA91F" format="2">
	<advance width="906"/>
	<unicode hex="A91F"/>
	<note>
		uniA91F
  </note>
	<outline>
		<contour>
			<point x="224" y="220" type="qcurve" smooth="yes"/>
			<point x="224" y="246" type="line"/>
			<point x="244" y="252"/>
			<point x="288" y="271"/>
			<point x="332" y="301"/>
			<point x="373" y="345"/>
			<point x="405" y="405"/>
			<point x="426" y="483"/>
			<point x="428" y="534" type="qcurve"/>
			<point x="426" y="819" type="line"/>
			<point x="68" y="819" type="line"/>
			<point x="68" y="222" type="line" smooth="yes"/>
			<point x="68" y="118"/>
			<point x="126" y="59" type="qcurve" smooth="yes"/>
			<point x="184" y="0"/>
			<point x="259" y="0" type="qcurve" smooth="yes"/>
			<point x="389" y="0" type="line"/>
			<point x="637" y="251" type="line"/>
			<point x="637" y="-198" type="line" smooth="yes"/>
			<point x="637" y="-260"/>
			<point x="595" y="-260" type="qcurve" smooth="yes"/>
			<point x="480" y="-260" type="line"/>
			<point x="480" y="-410" type="line"/>
			<point x="614" y="-410" type="line" smooth="yes"/>
			<point x="660" y="-410"/>
			<point x="729" y="-377"/>
			<point x="774" y="-318"/>
			<point x="795" y="-237"/>
			<point x="793" y="-189" type="qcurve"/>
			<point x="793" y="819" type="line"/>
			<point x="637" y="819" type="line"/>
			<point x="637" y="462" type="line"/>
			<point x="329" y="154" type="line"/>
			<point x="286" y="154" type="line" smooth="yes"/>
			<point x="255" y="154"/>
			<point x="224" y="186"/>
		</contour>
		<contour>
			<point x="224" y="408" type="qcurve"/>
			<point x="224" y="665" type="line"/>
			<point x="289" y="665" type="line"/>
			<point x="289" y="544" type="line" smooth="yes"/>
			<point x="289" y="528"/>
			<point x="280" y="490"/>
			<point x="264" y="452"/>
			<point x="240" y="419"/>
		</contour>
	</outline>
</glyph>
<glyph name="uniA920" format="2">
  <advance width="906"/>
  <unicode hex="A920"/>
  <outline>
    <contour>
      <point x="326" y="247" type="line"/>
      <point x="326" y="391" type="line"/>
      <point x="68" y="391" type="line"/>
      <point x="68" y="224" type="line" smooth="yes"/>
      <point x="68" y="156"/>
      <point x="86" y="101"/>
      <point x="122" y="61" type="curve" smooth="yes"/>
      <point x="159" y="20"/>
      <point x="204" y="0"/>
      <point x="259" y="0" type="curve" smooth="yes"/>
      <point x="614" y="0" type="line" smooth="yes"/>
      <point x="641" y="0"/>
      <point x="667" y="7"/>
      <point x="694" y="20" type="curve" smooth="yes"/>
      <point x="722" y="35"/>
      <point x="746" y="59"/>
      <point x="765" y="93" type="curve" smooth="yes"/>
      <point x="784" y="128"/>
      <point x="793" y="171"/>
      <point x="793" y="222" type="curve" smooth="yes"/>
      <point x="793" y="819" type="line"/>
      <point x="637" y="819" type="line"/>
      <point x="604" y="794"/>
      <point x="570" y="768"/>
      <point x="534" y="742" type="curve" smooth="yes"/>
      <point x="500" y="714"/>
      <point x="465" y="688"/>
      <point x="431" y="662" type="curve"/>
      <point x="222" y="819" type="line"/>
      <point x="68" y="819" type="line"/>
      <point x="68" y="501" type="line"/>
      <point x="224" y="501" type="line"/>
      <point x="224" y="631" type="line"/>
      <point x="430" y="477" type="line"/>
      <point x="638" y="638" type="line"/>
      <point x="638" y="216" type="line" smooth="yes"/>
      <point x="638" y="175"/>
      <point x="624" y="154"/>
      <point x="596" y="154" type="curve" smooth="yes"/>
      <point x="286" y="154" type="line" smooth="yes"/>
      <point x="245" y="154"/>
      <point x="224" y="177"/>
      <point x="224" y="222" type="curve" smooth="yes"/>
      <point x="224" y="247" type="line"/>
    </contour>
  </outline>
</glyph>
<glyph name="uniA921" format="2">
	<advance width="906"/>
	<unicode hex="A921"/>
	<note>
		uniA921
  </note>
	<outline>
		<contour>
			<point x="637" y="1005" type="qcurve" smooth="yes"/>
			<point x="637" y="263" type="line"/>
			<point x="211" y="815" type="line"/>
			<point x="68" y="815" type="line"/>
			<point x="68" y="0" type="line"/>
			<point x="357" y="0" type="line"/>
			<point x="357" y="154" type="line"/>
			<point x="224" y="154" type="line"/>
			<point x="224" y="556" type="line"/>
			<point x="652" y="0" type="line"/>
			<point x="793" y="0" type="line"/>
			<point x="793" y="1000" type="line" smooth="yes"/>
			<point x="793" y="1215"/>
			<point x="603" y="1221" type="qcurve"/>
			<point x="248" y="1221" type="line"/>
			<point x="68" y="1200"/>
			<point x="68" y="1000" type="qcurve" smooth="yes"/>
			<point x="68" y="868" type="line"/>
			<point x="394" y="868" type="line"/>
			<point x="394" y="1006" type="line"/>
			<point x="224" y="1006" type="line"/>
			<point x="224" y="1013" type="line" smooth="yes"/>
			<point x="224" y="1066"/>
			<point x="275" y="1067" type="qcurve"/>
			<point x="579" y="1067" type="line" smooth="yes"/>
			<point x="637" y="1067"/>
		</contour>
	</outline>
</glyph>
<glyph name="uniA922" format="2">
  <advance width="906"/>
  <unicode hex="A922"/>
  <note>
		uniA922
  </note>
  <outline>
    <contour>
      <point x="443" y="334" type="line"/>
      <point x="443" y="487" type="line"/>
      <point x="271" y="487" type="line" smooth="yes"/>
      <point x="259" y="487"/>
      <point x="242" y="495"/>
      <point x="235" y="502" type="qcurve" smooth="yes"/>
      <point x="223" y="516"/>
      <point x="224" y="523" type="qcurve"/>
      <point x="224" y="599" type="line" smooth="yes"/>
      <point x="224" y="667"/>
      <point x="286" y="667" type="qcurve" smooth="yes"/>
      <point x="595" y="669" type="line" smooth="yes"/>
      <point x="637" y="669"/>
      <point x="637" y="607" type="qcurve" smooth="yes"/>
      <point x="637" y="587" type="line"/>
      <point x="506" y="587" type="line"/>
      <point x="506" y="442" type="line"/>
      <point x="793" y="442" type="line"/>
      <point x="793" y="599" type="line" smooth="yes"/>
      <point x="793" y="676"/>
      <point x="765" y="727" type="qcurve" smooth="yes"/>
      <point x="736" y="779"/>
      <point x="694" y="800" type="qcurve" smooth="yes"/>
      <point x="654" y="820"/>
      <point x="614" y="820" type="qcurve" smooth="yes"/>
      <point x="259" y="820" type="line" smooth="yes"/>
      <point x="177" y="820"/>
      <point x="122" y="759" type="qcurve" smooth="yes"/>
      <point x="68" y="700"/>
      <point x="68" y="599" type="qcurve" smooth="yes"/>
      <point x="68" y="480" type="line" smooth="yes"/>
      <point x="68" y="458"/>
      <point x="80" y="422"/>
      <point x="92" y="410" type="qcurve"/>
      <point x="68" y="385"/>
      <point x="68" y="340" type="qcurve" smooth="yes"/>
      <point x="68" y="222" type="line" smooth="yes"/>
      <point x="68" y="121"/>
      <point x="122" y="61" type="qcurve" smooth="yes"/>
      <point x="177" y="0"/>
      <point x="259" y="0" type="qcurve" smooth="yes"/>
      <point x="614" y="0" type="line" smooth="yes"/>
      <point x="654" y="0"/>
      <point x="694" y="20" type="qcurve" smooth="yes"/>
      <point x="736" y="42"/>
      <point x="765" y="93" type="qcurve" smooth="yes"/>
      <point x="793" y="145"/>
      <point x="793" y="222" type="qcurve" smooth="yes"/>
      <point x="793" y="378" type="line"/>
      <point x="506" y="378" type="line"/>
      <point x="506" y="234" type="line"/>
      <point x="637" y="234" type="line"/>
      <point x="637" y="214" type="line" smooth="yes"/>
      <point x="637" y="152"/>
      <point x="595" y="152" type="qcurve" smooth="yes"/>
      <point x="286" y="154" type="line" smooth="yes"/>
      <point x="224" y="154"/>
      <point x="224" y="222" type="qcurve" smooth="yes"/>
      <point x="224" y="297" type="line"/>
      <point x="223" y="304"/>
      <point x="235" y="318" type="qcurve"/>
      <point x="242" y="325"/>
      <point x="259" y="334"/>
      <point x="271" y="334" type="qcurve" smooth="yes"/>
    </contour>
  </outline>
</glyph>
<glyph name="uniA923" format="2">
	<advance width="906"/>
	<unicode hex="A923"/>
	<note>
		uniA923
  </note>
	<outline>
		<contour>
			<point x="540" y="152" type="line"/>
			<point x="540" y="0" type="line"/>
			<point x="614" y="0" type="line" smooth="yes"/>
			<point x="649" y="0"/>
			<point x="703" y="22"/>
			<point x="743" y="58"/>
			<point x="770" y="105"/>
			<point x="786" y="154"/>
			<point x="793" y="203"/>
			<point x="793" y="224" type="qcurve" smooth="yes"/>
			<point x="793" y="819" type="line"/>
			<point x="534" y="819" type="line"/>
			<point x="534" y="665" type="line"/>
			<point x="637" y="665" type="line"/>
			<point x="637" y="493" type="line"/>
			<point x="298" y="154" type="line"/>
			<point x="286" y="154" type="line" smooth="yes"/>
			<point x="224" y="154"/>
			<point x="224" y="222" type="qcurve" smooth="yes"/>
			<point x="224" y="665" type="line"/>
			<point x="326" y="665" type="line"/>
			<point x="326" y="819" type="line"/>
			<point x="68" y="819" type="line"/>
			<point x="68" y="222" type="line" smooth="yes"/>
			<point x="68" y="118"/>
			<point x="126" y="59" type="qcurve" smooth="yes"/>
			<point x="184" y="0"/>
			<point x="259" y="0" type="qcurve" smooth="yes"/>
			<point x="353" y="0" type="line"/>
			<point x="637" y="283" type="line"/>
			<point x="637" y="214" type="line" smooth="yes"/>
			<point x="637" y="152"/>
			<point x="595" y="152" type="qcurve" smooth="yes"/>
		</contour>
	</outline>
</glyph>
<glyph name="uniA925" format="2">
	<advance width="906"/>
	<unicode hex="A925"/>
	<note>
		uniA925
  </note>
	<outline>
		<contour>
			<point x="259" y="0" type="qcurve" smooth="yes"/>
			<point x="601" y="0" type="line" smooth="yes"/>
			<point x="683" y="0"/>
			<point x="739" y="61" type="qcurve" smooth="yes"/>
			<point x="792" y="121"/>
			<point x="792" y="222" type="qcurve" smooth="yes"/>
			<point x="792" y="598" type="line" smooth="yes"/>
			<point x="792" y="798"/>
			<point x="612" y="819" type="qcurve"/>
			<point x="248" y="819" type="line"/>
			<point x="68" y="798"/>
			<point x="68" y="598" type="qcurve" smooth="yes"/>
			<point x="68" y="222" type="line" smooth="yes"/>
			<point x="68" y="121"/>
			<point x="122" y="61" type="qcurve" smooth="yes"/>
			<point x="177" y="0"/>
		</contour>
		<contour>
			<point x="430" y="576" type="qcurve" smooth="yes"/>
			<point x="406" y="576"/>
			<point x="346" y="588"/>
			<point x="289" y="608"/>
			<point x="239" y="636"/>
			<point x="224" y="652" type="qcurve"/>
			<point x="224" y="665"/>
			<point x="241" y="665" type="qcurve" smooth="yes"/>
			<point x="620" y="665" type="line" smooth="yes"/>
			<point x="636" y="665"/>
			<point x="636" y="652" type="qcurve"/>
			<point x="621" y="636"/>
			<point x="574" y="608"/>
			<point x="519" y="588"/>
			<point x="459" y="576"/>
		</contour>
		<contour>
			<point x="575" y="154" type="qcurve" smooth="yes"/>
			<point x="286" y="154" type="line" smooth="yes"/>
			<point x="224" y="154"/>
			<point x="224" y="222" type="qcurve" smooth="yes"/>
			<point x="224" y="488" type="line"/>
			<point x="250" y="473"/>
			<point x="308" y="454"/>
			<point x="364" y="443"/>
			<point x="413" y="439"/>
			<point x="430" y="439" type="qcurve" smooth="yes"/>
			<point x="447" y="439"/>
			<point x="496" y="443"/>
			<point x="552" y="454"/>
			<point x="611" y="473"/>
			<point x="636" y="488" type="qcurve"/>
			<point x="636" y="222" type="line" smooth="yes"/>
			<point x="636" y="154"/>
		</contour>
	</outline>
</glyph>
<glyph name="uniA926" format="2">
	<advance width="0"/>
	<unicode hex="A926"/>
	<note>
		uniA926
  </note>
	<outline>
		<contour>
			<point x="-402" y="997" type="line"/>
			<point x="-402" y="1153" type="line"/>
			<point x="-558" y="1153" type="line"/>
			<point x="-558" y="997" type="line"/>
		</contour>
	</outline>
</glyph>
<glyph name="uniA927" format="2">
  <unicode hex="A927"/>
  <note>
		uniA927
  </note>
  <outline>
    <contour>
      <point x="-338" y="1049" type="line"/>
      <point x="-594" y="1229" type="line"/>
      <point x="-847" y="1229" type="line"/>
      <point x="-352" y="898" type="line"/>
      <point x="-123" y="898" type="line"/>
    </contour>
  </outline>
</glyph>
<glyph name="uniA928" format="2">
  <unicode hex="A928"/>
  <note>
uniA928
</note>
  <outline>
    <contour>
      <point x="-139" y="884" type="line"/>
      <point x="-469" y="1229" type="line"/>
      <point x="-796" y="884" type="line"/>
      <point x="-606" y="884" type="line"/>
      <point x="-469" y="1021" type="line"/>
      <point x="-329" y="884" type="line"/>
    </contour>
  </outline>
</glyph>
<glyph name="uniA929" format="2">
	<advance width="0"/>
	<unicode hex="A929"/>
	<note>
		uniA929
  </note>
	<outline>
		<contour>
			<point x="-622" y="884" type="qcurve" smooth="yes"/>
			<point x="-327" y="884" type="line" smooth="yes"/>
			<point x="-281" y="884"/>
			<point x="-210" y="916"/>
			<point x="-161" y="973"/>
			<point x="-136" y="1050"/>
			<point x="-136" y="1095" type="qcurve" smooth="yes"/>
			<point x="-136" y="1229" type="line"/>
			<point x="-274" y="1229" type="line"/>
			<point x="-274" y="1093" type="line" smooth="yes"/>
			<point x="-274" y="1059"/>
			<point x="-299" y="1022"/>
			<point x="-330" y="1021" type="qcurve" smooth="yes"/>
			<point x="-619" y="1021" type="line" smooth="yes"/>
			<point x="-650" y="1022"/>
			<point x="-675" y="1059"/>
			<point x="-675" y="1093" type="qcurve" smooth="yes"/>
			<point x="-675" y="1229" type="line"/>
			<point x="-813" y="1229" type="line"/>
			<point x="-813" y="1095" type="line" smooth="yes"/>
			<point x="-813" y="1050"/>
			<point x="-787" y="973"/>
			<point x="-738" y="916"/>
			<point x="-667" y="884"/>
		</contour>
	</outline>
</glyph>
<glyph name="uniA92A" format="2">
	<advance width="0"/>
	<unicode hex="A92A"/>
	<note>
		uniA92A
  </note>
	<outline>
		<contour>
			<point x="-395" y="1074" type="line"/>
			<point x="-395" y="1229" type="line"/>
			<point x="-551" y="1229" type="line"/>
			<point x="-551" y="1074" type="line"/>
		</contour>
		<contour>
			<point x="-622" y="884" type="qcurve" smooth="yes"/>
			<point x="-327" y="884" type="line" smooth="yes"/>
			<point x="-281" y="884"/>
			<point x="-210" y="916"/>
			<point x="-161" y="973"/>
			<point x="-136" y="1050"/>
			<point x="-136" y="1095" type="qcurve" smooth="yes"/>
			<point x="-136" y="1229" type="line"/>
			<point x="-274" y="1229" type="line"/>
			<point x="-274" y="1093" type="line" smooth="yes"/>
			<point x="-274" y="1059"/>
			<point x="-299" y="1022"/>
			<point x="-330" y="1021" type="qcurve" smooth="yes"/>
			<point x="-619" y="1021" type="line" smooth="yes"/>
			<point x="-650" y="1022"/>
			<point x="-675" y="1059"/>
			<point x="-675" y="1093" type="qcurve" smooth="yes"/>
			<point x="-675" y="1229" type="line"/>
			<point x="-813" y="1229" type="line"/>
			<point x="-813" y="1095" type="line" smooth="yes"/>
			<point x="-813" y="1050"/>
			<point x="-787" y="973"/>
			<point x="-738" y="916"/>
			<point x="-667" y="884"/>
		</contour>
	</outline>
</glyph>
<glyph name="uniA92B" format="2">
  <unicode hex="A92B"/>
  <note>
uniA92B
</note>
  <outline>
    <contour>
      <point x="-402" y="-322" type="line"/>
      <point x="-402" y="-166" type="line"/>
      <point x="-558" y="-166" type="line"/>
      <point x="-558" y="-322" type="line"/>
    </contour>
  </outline>
</glyph>
<glyph name="uniA92C" format="2">
	<advance width="0"/>
	<unicode hex="A92C"/>
	<note>
		uniA92C
  </note>
	<outline>
		<contour>
			<point x="-612" y="-1" type="qcurve"/>
			<point x="-639" y="153" type="line"/>
			<point x="-737" y="149"/>
			<point x="-832" y="36"/>
			<point x="-832" y="-73" type="qcurve" smooth="yes"/>
			<point x="-832" y="-190" type="line" smooth="yes"/>
			<point x="-832" y="-240"/>
			<point x="-804" y="-319"/>
			<point x="-778" y="-349" type="qcurve" smooth="yes"/>
			<point x="-722" y="-410"/>
			<point x="-641" y="-410" type="qcurve" smooth="yes"/>
			<point x="-295" y="-410" type="line" smooth="yes"/>
			<point x="-262" y="-410"/>
			<point x="-199" y="-383"/>
			<point x="-172" y="-358" type="qcurve"/>
			<point x="-145" y="-331"/>
			<point x="-115" y="-246"/>
			<point x="-115" y="-190" type="qcurve" smooth="yes"/>
			<point x="-115" y="-92" type="line"/>
			<point x="-271" y="-92" type="line"/>
			<point x="-271" y="-209" type="line" smooth="yes"/>
			<point x="-271" y="-267"/>
			<point x="-314" y="-267" type="qcurve" smooth="yes"/>
			<point x="-614" y="-268" type="line" smooth="yes"/>
			<point x="-675" y="-268"/>
			<point x="-675" y="-201" type="qcurve" smooth="yes"/>
			<point x="-676" y="-85" type="line" smooth="yes"/>
			<point x="-676" y="-71"/>
			<point x="-674" y="-40"/>
			<point x="-662" y="-15"/>
			<point x="-636" y="1"/>
		</contour>
	</outline>
</glyph>
<glyph name="uniA92D" format="2">
	<advance width="0"/>
	<unicode hex="A92D"/>
	<note>
		uniA92D
  </note>
	<outline>
		<contour>
			<point x="-612" y="-1" type="qcurve"/>
			<point x="-639" y="153" type="line"/>
			<point x="-737" y="149"/>
			<point x="-832" y="36"/>
			<point x="-832" y="-73" type="qcurve" smooth="yes"/>
			<point x="-832" y="-190" type="line" smooth="yes"/>
			<point x="-832" y="-240"/>
			<point x="-804" y="-319"/>
			<point x="-778" y="-349" type="qcurve" smooth="yes"/>
			<point x="-722" y="-410"/>
			<point x="-641" y="-410" type="qcurve" smooth="yes"/>
			<point x="-295" y="-410" type="line" smooth="yes"/>
			<point x="-262" y="-410"/>
			<point x="-199" y="-383"/>
			<point x="-172" y="-358" type="qcurve"/>
			<point x="-145" y="-331"/>
			<point x="-115" y="-246"/>
			<point x="-115" y="-190" type="qcurve" smooth="yes"/>
			<point x="-115" y="-92" type="line"/>
			<point x="-271" y="-92" type="line"/>
			<point x="-271" y="-209" type="line" smooth="yes"/>
			<point x="-271" y="-267"/>
			<point x="-314" y="-267" type="qcurve" smooth="yes"/>
			<point x="-614" y="-268" type="line" smooth="yes"/>
			<point x="-675" y="-268"/>
			<point x="-675" y="-201" type="qcurve" smooth="yes"/>
			<point x="-676" y="-85" type="line" smooth="yes"/>
			<point x="-676" y="-71"/>
			<point x="-674" y="-40"/>
			<point x="-662" y="-15"/>
			<point x="-636" y="1"/>
		</contour>
		<contour>
			<point x="-394" y="-220" type="line"/>
			<point x="-394" y="-65" type="line"/>
			<point x="-551" y="-65" type="line"/>
			<point x="-551" y="-220" type="line"/>
		</contour>
	</outline>
</glyph>
<glyph name="uniA92E" format="2">
  <advance width="1087"/>
  <unicode hex="A92E"/>
  <outline>
    <contour>
      <point x="515" y="123" type="curve" smooth="yes"/>
      <point x="565" y="123"/>
      <point x="634" y="109"/>
      <point x="684" y="90" type="curve" smooth="yes"/>
      <point x="735" y="70"/>
      <point x="782" y="40"/>
      <point x="790" y="0" type="curve"/>
      <point x="964" y="0" type="line"/>
      <point x="953" y="59"/>
      <point x="920" y="109"/>
      <point x="872" y="150" type="curve" smooth="yes"/>
      <point x="849" y="170"/>
      <point x="822" y="188"/>
      <point x="793" y="204" type="curve" smooth="yes"/>
      <point x="734" y="236"/>
      <point x="670" y="257"/>
      <point x="606" y="268" type="curve" smooth="yes"/>
      <point x="574" y="274"/>
      <point x="544" y="277"/>
      <point x="515" y="277" type="curve" smooth="yes"/>
      <point x="458" y="277"/>
      <point x="392" y="265"/>
      <point x="329" y="244" type="curve" smooth="yes"/>
      <point x="298" y="233"/>
      <point x="267" y="220"/>
      <point x="238" y="204" type="curve" smooth="yes"/>
      <point x="179" y="172"/>
      <point x="131" y="132"/>
      <point x="99" y="82" type="curve" smooth="yes"/>
      <point x="83" y="56"/>
      <point x="72" y="29"/>
      <point x="67" y="0" type="curve"/>
      <point x="241" y="0" type="line"/>
      <point x="247" y="39"/>
      <point x="297" y="71"/>
      <point x="346" y="90" type="curve" smooth="yes"/>
      <point x="396" y="109"/>
      <point x="466" y="123"/>
    </contour>
  </outline>
</glyph>
<glyph name="uniA92F" format="2">
	<advance width="282"/>
	<unicode hex="A92F"/>
	<note>
		uniA92F
  </note>
	<outline>
		<contour>
			<point x="214" y="0" type="line"/>
			<point x="214" y="817" type="line"/>
			<point x="59" y="820" type="line"/>
			<point x="59" y="0" type="line"/>
		</contour>
	</outline>
</glyph>
<glyph name=".notdef" format="2">
  <advance width="1510"/>
  <note>
.notdef
</note>
  <outline>
    <contour>
      <point x="224" y="0" type="line"/>
      <point x="1251" y="0" type="line"/>
      <point x="1251" y="1266" type="line"/>
      <point x="224" y="1266" type="line"/>
    </contour>
    <contour>
      <point x="1153" y="98" type="line"/>
      <point x="322" y="98" type="line"/>
      <point x="322" y="1169" type="line"/>
      <point x="1153" y="1169" type="line"/>
    </contour>
  </outline>
</glyph>
<glyph name="designtest" format="2">
  <advance width="906"/>
  <outline>
    <contour>
      <point x="236" y="-195" type="curve" smooth="yes"/>
      <point x="236" y="1" type="line"/>
      <point x="239" y="1"/>
      <point x="242" y="1"/>
      <point x="244" y="0" type="curve" smooth="yes"/>
      <point x="248" y="0"/>
      <point x="251" y="0"/>
      <point x="254" y="0" type="curve" smooth="yes"/>
      <point x="608" y="0" type="line" smooth="yes"/>
      <point x="665" y="0"/>
      <point x="711" y="20"/>
      <point x="748" y="60" type="curve" smooth="yes"/>
      <point x="785" y="100"/>
      <point x="803" y="157"/>
      <point x="803" y="226" type="curve" smooth="yes"/>
      <point x="803" y="598" type="line" smooth="yes"/>
      <point x="803" y="732"/>
      <point x="743" y="806"/>
      <point x="622" y="819" type="curve"/>
      <point x="260" y="819" type="line"/>
      <point x="132" y="815"/>
      <point x="75" y="741"/>
      <point x="75" y="598" type="curve" smooth="yes"/>
      <point x="75" y="437" type="line"/>
      <point x="381" y="437" type="line"/>
      <point x="381" y="576" type="line"/>
      <point x="365" y="576"/>
      <point x="250" y="578"/>
      <point x="231" y="578" type="curve"/>
      <point x="231" y="604" type="line" smooth="yes"/>
      <point x="231" y="620"/>
      <point x="235" y="635"/>
      <point x="244" y="650" type="curve" smooth="yes"/>
      <point x="250" y="660"/>
      <point x="265" y="665"/>
      <point x="290" y="665" type="curve" smooth="yes"/>
      <point x="596" y="665" type="line" smooth="yes"/>
      <point x="630" y="664"/>
      <point x="647" y="639"/>
      <point x="647" y="589" type="curve" smooth="yes"/>
      <point x="647" y="223" type="line" smooth="yes"/>
      <point x="647" y="178"/>
      <point x="629" y="156"/>
      <point x="584" y="156" type="curve" smooth="yes"/>
      <point x="275" y="154" type="line" smooth="yes"/>
      <point x="260" y="154"/>
      <point x="249" y="159"/>
      <point x="244" y="168" type="curve" smooth="yes"/>
      <point x="235" y="182"/>
      <point x="231" y="198"/>
      <point x="231" y="216" type="curve" smooth="yes"/>
      <point x="231" y="238" type="line"/>
      <point x="381" y="238" type="line"/>
      <point x="381" y="382" type="line"/>
      <point x="75" y="382" type="line"/>
      <point x="75" y="-185" type="line" smooth="yes"/>
      <point x="75" y="-263"/>
      <point x="94" y="-320"/>
      <point x="132" y="-356" type="curve" smooth="yes"/>
      <point x="169" y="-392"/>
      <point x="209" y="-410"/>
      <point x="254" y="-410" type="curve" smooth="yes"/>
      <point x="612" y="-410" type="line" smooth="yes"/>
      <point x="664" y="-410"/>
      <point x="704" y="-395"/>
      <point x="743" y="-364" type="curve"/>
      <point x="743" y="-364" type="line"/>
      <point x="783" y="-332"/>
      <point x="803" y="-281"/>
      <point x="803" y="-212" type="curve" smooth="yes"/>
      <point x="803" y="-54" type="line"/>
      <point x="502" y="-54" type="line"/>
      <point x="502" y="-192" type="line"/>
      <point x="647" y="-192" type="line"/>
      <point x="647" y="-205"/>
      <point x="645" y="-219"/>
      <point x="644" y="-224" type="curve" smooth="yes"/>
      <point x="640" y="-248"/>
      <point x="625" y="-258"/>
      <point x="586" y="-258" type="curve" smooth="yes"/>
      <point x="281" y="-256" type="line" smooth="yes"/>
      <point x="266" y="-256"/>
      <point x="259" y="-253"/>
      <point x="250" y="-242" type="curve" smooth="yes"/>
      <point x="241" y="-230"/>
      <point x="236" y="-214"/>
    </contour>
    <contour>
      <point x="482" y="1010" type="line"/>
      <point x="482" y="873" type="line"/>
      <point x="800" y="873" type="line"/>
      <point x="800" y="1011" type="line" smooth="yes"/>
      <point x="800" y="1078"/>
      <point x="784" y="1128"/>
      <point x="751" y="1161" type="curve"/>
      <point x="751" y="1161" type="line"/>
      <point x="719" y="1193"/>
      <point x="673" y="1214"/>
      <point x="612" y="1224" type="curve"/>
      <point x="258" y="1224" type="line"/>
      <point x="131" y="1217"/>
      <point x="75" y="1140"/>
      <point x="75" y="992" type="curve" smooth="yes"/>
      <point x="75" y="494" type="line"/>
      <point x="231" y="489" type="line"/>
      <point x="231" y="998" type="line" smooth="yes"/>
      <point x="231" y="1017"/>
      <point x="237" y="1034"/>
      <point x="248" y="1051" type="curve" smooth="yes"/>
      <point x="257" y="1064"/>
      <point x="270" y="1070"/>
      <point x="289" y="1070" type="curve" smooth="yes"/>
      <point x="576" y="1070" type="line" smooth="yes"/>
      <point x="621" y="1070"/>
      <point x="644" y="1059"/>
      <point x="644" y="1037" type="curve" smooth="yes"/>
      <point x="644" y="1010" type="line"/>
    </contour>
  </outline>
</glyph>
